<svg width="486" height="378" viewBox="0 0 486 378" fill="none" xmlns="http://www.w3.org/2000/svg">
<path d="M297.628 135.633C301.273 145.867 304.699 156.178 308.041 166.514C310.089 172.844 312.103 179.185 314.119 185.527C314.396 186.399 314.676 187.324 314.463 188.215C314.033 190.016 310.912 189.926 309.397 190.319C307.708 190.757 305.929 191.406 304.184 191.573C300.937 191.887 297.118 191.337 294.976 188.616C293.87 187.21 294.043 185.703 293.491 184.092C292.782 182.02 291.969 179.979 291.177 177.938C287.973 169.68 284.418 161.558 280.526 153.601C278.508 149.474 276.397 145.386 274.642 141.14C273.117 137.452 271.153 132.53 272.042 128.464C272.878 124.643 272.404 120.67 272.085 116.749C271.347 107.696 269.841 98.7055 267.583 89.9072C272.93 90.6634 277.739 97.2019 281.07 101.057C282.898 103.173 284.406 105.512 286.161 107.675C287.807 109.705 288.622 111.793 289.6 114.253C291.877 119.974 294.052 125.734 296.153 131.522C296.648 132.892 297.14 134.262 297.628 135.633Z" fill="#F7B385"/>
<path d="M296.407 154.623C296.916 154.415 297.435 154.204 297.985 154.166C298.534 154.129 299.125 154.294 299.47 154.722C299.279 155.39 298.779 155.936 298.199 156.32C297.62 156.703 296.959 156.944 296.307 157.181C294.422 157.865 292.536 158.55 290.651 159.234C290.018 159.464 288.441 159.713 288.497 158.566C288.534 157.812 289.764 157.36 290.323 157.116C292.331 156.243 294.38 155.455 296.407 154.623Z" fill="#E0764C"/>
<path d="M300.651 126.675C300.524 126.835 300.396 126.991 300.266 127.143C294.837 133.516 286.683 136.764 278.832 139.673C277.631 140.118 276.324 140.566 275.098 140.195C273.381 139.677 273.382 137.738 273.14 136.282C272.759 133.99 272.317 131.709 271.943 129.416C271.193 124.818 270.548 120.203 270.009 115.576C268.929 106.321 268.27 97.0169 268.036 87.7021C270.704 89.8944 273.63 91.7793 276.293 94.063C279.162 96.5222 281.958 99.0663 284.678 101.69C290.179 106.996 295.367 112.627 300.214 118.537C301.179 119.714 302.172 121.003 302.288 122.52C302.402 124.043 301.61 125.459 300.651 126.675Z" fill="#2F5F7D"/>
<path d="M284.43 203.06C283.632 182.79 282.15 162.547 279.989 142.376C278.909 132.29 277.659 122.223 276.239 112.179C275.959 110.197 275.637 108.198 275.444 106.206C275.292 104.63 274.782 103.426 274.341 101.9C273.402 98.6522 273.294 95.1307 271.653 92.1093C269.684 88.4854 265.85 86.3041 262.063 84.6698C249.057 79.0585 234.225 77.7739 220.449 81.0677C217.025 81.8859 213.636 82.9918 210.608 84.7874C207.969 86.3521 204.901 88.7927 203.669 91.7095C202.37 94.7886 201.903 98.4702 201.375 101.764C198.927 117.032 196.85 132.305 194.989 147.664C192.361 169.36 190.218 191.115 188.562 212.907" fill="#3F7EA6"/>
<path d="M225.534 91.825C227.365 94.6982 229.741 97.2239 232.498 99.2254C234.029 100.337 235.832 101.324 237.711 101.101C239.68 100.866 241.241 99.3681 242.529 97.8602C244.858 95.1352 246.827 92.1029 248.375 88.869C250.043 85.3813 249.398 82.4264 249.548 78.65C249.727 74.1697 248.86 69.357 247.586 65.0783C246.763 62.3184 245.626 59.613 243.863 57.3358C240.414 52.8795 234.46 50.9346 229.353 53.9266C225.113 56.4108 224.355 59.9083 225.045 64.4725C225.44 67.0929 224.806 69.952 224.554 72.5767C223.99 78.4473 221.824 85.4478 224.918 90.8096C225.115 91.1528 225.32 91.4906 225.534 91.825Z" fill="#F7B385"/>
<path d="M246.238 89.122C244.159 93.4334 241.121 97.9137 237.686 101.227C240.758 103.165 243.065 106.283 244.019 109.788C246.456 107.968 247.936 105.167 249.222 102.411C251.005 98.5925 252.583 94.6243 253.174 90.4513C253.565 87.6849 253.346 85.0906 252.978 82.346C252.81 81.0984 252.354 80.1516 251.695 79.0566C251.326 78.442 250.925 77.846 250.495 77.2729C250.292 77.0027 249.333 76.1441 249.326 75.8467C249.43 80.3891 248.255 84.9097 246.293 89.0087C246.274 89.0468 246.256 89.0839 246.238 89.122Z" fill="#2F5F7D"/>
<path d="M219.781 81.8296C219.301 84.5895 219.906 87.6163 220.591 90.2575C222.503 97.624 226.327 104.484 231.587 109.983C232.204 106.452 234.304 103.204 237.272 101.192C234.073 97.8452 231.279 94.6081 229.321 90.3686C226.841 84.9992 225.131 79.2757 224.258 73.4258C222.277 75.5145 220.745 78.1284 219.986 80.9122C219.902 81.2151 219.834 81.5202 219.781 81.8296Z" fill="#2F5F7D"/>
<path d="M231.468 84.0565C233.193 85.4304 235.333 86.2912 237.512 86.1201C239.784 85.9414 241.862 84.6677 243.423 83.0094C244.985 81.35 246.091 79.3212 247.106 77.2826C247.88 75.7311 248.627 74.0924 248.626 72.3589C248.625 70.5338 247.794 68.8156 246.861 67.2466C245.38 64.7548 243.547 62.3991 241.115 60.8203C238.198 58.9267 234.947 58.8961 231.633 59.2481C228.61 59.5684 226.48 61.838 225.176 64.4268C223.431 67.8949 224.904 72.239 226.19 75.6788C227.157 78.2654 228.322 80.8422 230.194 82.8732C230.585 83.2959 231.012 83.6936 231.468 84.0565Z" fill="#E0764C"/>
<path d="M212.585 45.8289C213.653 52.8577 216.304 59.6479 220.864 65.0587C226.714 72.0003 235.953 76.3466 244.946 75.1089C250.335 74.368 255.409 71.4174 258.802 67.1779C262.81 62.1692 263.05 55.9205 264.075 49.8385C264.971 44.5214 265.607 39.1989 265.873 33.8142C266.114 28.9122 264.87 23.2465 263.439 18.5483C261.952 13.6637 259.462 8.96551 255.6 5.62598C251.709 2.26248 246.61 0.465773 241.481 0.0833341C236.352 -0.299105 231.189 0.666256 226.324 2.3333C223.087 3.44248 219.914 4.89052 217.297 7.09472C212.388 11.2296 209.897 17.7224 209.519 24.1279C209.284 28.0961 209.79 32.0698 210.679 35.9334C211.126 37.874 211.845 39.7589 212.275 41.6962C212.574 43.0396 212.374 44.443 212.585 45.8289Z" fill="#F7B385"/>
<path d="M218.613 37.7225C219.299 39.5464 219.661 41.4749 220.123 43.3697C220.914 46.6144 222.166 50.1141 225.795 51.0141C228.494 51.6842 231.177 50.1534 233.773 49.1618C237.259 47.8293 241.099 47.4294 244.788 48.0156C248.226 48.5615 251.526 49.9431 255.003 50.1054C257.828 50.2373 261.14 49.2893 262.798 46.8378C263.832 45.308 263.899 43.361 264.196 41.5883C264.56 39.4178 264.925 37.2474 265.289 35.077C265.318 34.9027 265.386 34.6891 265.56 34.6651C265.775 34.6357 265.885 34.9114 265.917 35.126C267.089 42.8958 267.462 51.3693 265.678 59.0726C264.231 65.3213 260.507 71.3444 254.697 74.1261C250.079 76.3379 244.716 76.2965 239.607 75.8694C235.043 75.488 230.41 74.8081 226.312 72.7739C219.944 69.6131 215.485 63.4025 213.229 56.6897C212.642 54.9431 212.19 53.1529 211.848 51.3432C211.502 49.516 211.521 47.57 211.112 45.77C210.319 42.2791 210.369 38.5582 210.686 34.9822C210.765 34.0986 210.912 33.1278 211.586 32.5503C212.51 31.7593 213.956 32.1068 214.976 32.7693C216.667 33.8676 217.808 35.6567 218.541 37.5351C218.566 37.5983 218.59 37.6604 218.613 37.7225Z" fill="black"/>
<path d="M242.078 58.1714C239.828 58.1573 237.578 58.0886 235.332 57.9666C234.682 57.9317 234.022 57.8925 233.392 58.0516C232.762 58.2096 232.155 58.6007 231.905 59.2C231.516 60.1305 232.088 61.1786 232.751 61.9381C235.321 64.8777 239.339 66.3094 243.16 66.2822C247.457 66.2506 253.762 64.6881 254.385 59.6216C254.447 59.1128 254.423 58.5332 254.055 58.1769C253.668 57.8042 253.062 57.8184 252.526 57.8544C249.048 58.0886 245.563 58.1943 242.078 58.1714Z" fill="#E0764C"/>
<path d="M235.535 60.3242C239.72 62.4293 244.859 62.5306 249.123 60.5922" stroke="black" stroke-miterlimit="10" stroke-linecap="round" stroke-linejoin="round"/>
<path d="M241.944 34.0342C242.298 32.9293 243.027 31.7058 244.188 31.6742C244.979 31.6524 245.681 32.2386 246.061 32.9337C246.44 33.6288 246.602 34.421 246.738 35.2011C247.117 37.3617 247.428 39.5223 249.268 41.2417C249.987 41.9128 250.41 42.864 250.729 43.7945C251.049 44.725 251.022 45.8484 250.372 46.586C249.828 47.2027 248.938 47.4359 248.122 47.3335C247.306 47.231 246.554 46.8355 245.88 46.3648C241.69 43.4393 240.426 38.7705 241.944 34.0342Z" fill="#E0764C"/>
<path d="M235.185 28.437C234.478 26.6861 234.086 25.6608 229.238 25.9931C227.01 26.1457 224.949 27.6177 223.908 29.592" stroke="black" stroke-miterlimit="10" stroke-linecap="round" stroke-linejoin="round"/>
<path d="M232.616 38.5103C232.86 39.249 233.347 40.0379 234.121 40.125C234.832 40.2056 235.459 39.6456 235.846 39.0442C236.49 38.0418 236.758 36.804 236.587 35.624C236.399 34.3361 234.74 31.8323 233.188 33.0712C231.844 34.1466 232.153 37.108 232.616 38.5103Z" fill="black"/>
<path d="M250.129 29.4026C251.051 28.4089 252.099 27.4991 253.34 26.9554C254.581 26.4117 256.041 26.2657 257.293 26.7876C258.544 27.3095 259.514 28.5745 259.473 29.9289" stroke="black" stroke-miterlimit="10" stroke-linecap="round" stroke-linejoin="round"/>
<path d="M254.866 38.7216C254.991 39.1574 255.164 39.5878 255.453 39.9354C255.743 40.2829 256.166 40.5401 256.619 40.5499C257.506 40.5695 258.14 39.6989 258.48 38.8796C258.875 37.9328 259.106 36.902 259.022 35.8789C258.939 34.8558 258.523 33.8425 257.772 33.143C254.888 30.4561 254.424 37.1777 254.866 38.7216Z" fill="black"/>
<path d="M209.804 34.6412C208.653 34.0333 207.292 33.7173 206.034 34.0507C204.832 34.3689 203.832 35.2579 203.196 36.3268C202.559 37.3957 202.257 38.6334 202.119 39.8701C201.767 43.0277 202.488 46.3487 204.384 48.8983C206.28 51.4479 209.394 53.1301 212.569 53.0168C213.563 52.9809 214.62 52.739 215.292 52.0068C215.994 51.243 216.123 50.1251 216.148 49.0889C216.221 46.0403 215.662 42.9819 214.539 40.1479C213.534 37.619 212.249 35.9346 209.804 34.6412Z" fill="#F7B385"/>
<path d="M209.645 40.0334C211.156 42.5852 211.946 45.5597 211.899 48.5255" stroke="black" stroke-miterlimit="10" stroke-linecap="round" stroke-linejoin="round"/>
<path d="M207.209 43.5308C208.523 44.2815 209.998 44.9309 211.479 44.6236" stroke="black" stroke-miterlimit="10" stroke-linecap="round" stroke-linejoin="round"/>
<path d="M242.471 140.522L239.065 99.21H268.104L263.636 140.522C262.28 141.536 259.103 143.619 254.557 144.004C248.227 144.541 243.675 141.409 242.471 140.522Z" fill="#F2594B"/>
<path d="M271.139 104.055C267.735 105.503 262.23 107.348 255.246 107.578C246.73 107.858 240.08 105.605 236.431 104.055C236.431 101.679 236.431 99.3017 236.431 96.9253C239.534 95.364 245.923 92.6695 254.386 92.8013C262.182 92.9222 268.082 95.3858 271.139 96.9253C271.139 99.3017 271.139 101.679 271.139 104.055Z" fill="#333333"/>
<path d="M267.863 98.8376C265.102 100.012 260.636 101.508 254.97 101.694C248.061 101.922 242.668 100.094 239.707 98.8376C239.707 96.9091 239.707 94.9816 239.707 93.0531C242.224 91.787 247.408 89.6013 254.273 89.7081C260.598 89.8062 265.383 91.8045 267.863 93.0531C267.863 94.9805 267.863 96.9091 267.863 98.8376Z" fill="black"/>
<path d="M258.108 94.8214C258.231 94.8029 258.353 94.7833 258.476 94.7648C258.018 91.2433 257.553 87.724 257.08 84.2047C256.451 79.513 255.807 74.8224 255.15 70.134C254.822 67.7892 254.489 65.4455 254.155 63.103C254.018 62.1398 254.052 61.607 253.098 61.2256C252.228 60.8781 251.274 60.9227 250.363 60.7767C249.901 60.7027 244.797 60.1927 244.798 60.2908C244.799 61.0916 244.676 61.8151 244.834 62.6116C247.296 63.2773 249.832 63.6706 252.381 63.7839C252.997 68.4756 253.631 73.164 254.27 77.8525C254.91 82.5431 255.556 87.2326 256.186 91.9243C256.186 92.9027 256.493 94.086 256.716 95.0393C257.179 94.9652 257.644 94.8933 258.108 94.8214Z" fill="white"/>
<path d="M240.136 119.146C241.417 118.676 242.88 118.538 244.236 118.265C247.214 117.667 249.986 116.272 252.477 114.534C253.291 113.966 254.275 113.329 255.201 113.687C256.034 114.01 256.388 115.012 256.401 115.904C256.432 117.88 255.286 119.724 253.783 121.007C252.281 122.289 250.444 123.1 248.635 123.893C248.895 123.779 249.704 124.027 250.01 124.048C255.345 124.405 261.226 122.06 265.318 118.735C265.691 118.432 266.099 118.102 266.578 118.104C267.343 118.107 267.826 118.933 268 119.678C268.352 121.182 268.088 122.821 267.28 124.137C268.133 125.25 268.526 126.705 268.35 128.097C268.172 129.488 267.427 130.799 266.321 131.662C267.151 132.342 267.561 133.498 267.343 134.548C267.126 135.598 266.29 136.497 265.258 136.791C266.178 137.076 266.461 138.348 266.028 139.208C265.594 140.068 264.696 140.581 263.821 140.984C261.805 141.913 259.746 142.274 257.626 142.792C255.28 143.364 252.836 143.504 250.433 143.321C246.439 143.018 242.558 141.861 238.797 140.487C237.464 140 236.048 139.412 235.296 138.208C234.635 137.148 234.694 135.949 234.767 134.755C234.829 133.749 234.627 132.807 234.733 131.795C235.025 128.999 235.637 126.226 236.505 123.553C236.895 122.352 237.367 121.126 238.279 120.253C238.818 119.744 239.451 119.396 240.136 119.146Z" fill="#F7B385"/>
<path d="M252.746 127.945C252.392 127.9 252.031 127.846 251.683 127.92C251.334 127.994 250.994 128.23 250.909 128.576C250.815 128.957 251.062 129.357 251.396 129.562C251.731 129.767 252.134 129.818 252.525 129.851C256.642 130.202 260.851 129.038 264.256 126.709C265.033 126.178 266.149 125.489 266.648 124.697C265.746 124.915 264.89 125.64 264.058 126.046C262.903 126.61 261.694 127.062 260.453 127.398C257.95 128.075 255.317 128.273 252.746 127.945Z" fill="#E0764C"/>
<path d="M253.444 133.814C252.894 133.779 252.175 133.844 252.031 134.398C251.941 134.744 252.165 135.113 252.466 135.29C252.767 135.466 253.125 135.494 253.469 135.509C258.016 135.701 262.554 134.305 266.321 131.664C265.636 132.221 264.498 132.419 263.671 132.662C262.559 132.989 261.428 133.25 260.287 133.446C258.029 133.832 255.729 133.958 253.444 133.814Z" fill="#E0764C"/>
<path d="M254.606 137.875C254.217 137.872 253.829 137.863 253.441 137.847C253.273 137.841 253.101 137.833 252.943 137.889C252.59 138.012 252.542 138.444 252.786 138.7C253.024 138.949 253.557 139.035 253.876 139.113C254.793 139.341 255.753 139.372 256.691 139.282C258.026 139.155 259.325 138.791 260.615 138.428C262.076 138.018 263.667 137.734 265.045 137.086C265.611 136.82 265.436 136.748 264.872 136.776C263.988 136.821 263.112 136.95 262.235 137.056C261.341 137.165 260.458 137.435 259.552 137.559C257.914 137.78 256.259 137.887 254.606 137.875Z" fill="#E0764C"/>
<path d="M174.347 153.011C174.897 155.362 175.887 157.554 177.49 159.38C182.437 165.009 190.186 164.656 196.904 163.272C205.067 161.591 213.149 157.39 220.397 153.419C227.536 149.508 234.379 145.085 241.207 140.66C240.373 141.2 237.768 136.099 237.52 135.479C236.908 133.939 236.645 132.142 236.455 130.506C236.4 130.033 235.919 126.109 236.317 125.957C223.735 130.768 210.958 135.07 198.027 138.846C200.977 131.274 203.886 123.594 205.623 115.618C206.574 111.251 207.113 106.795 207.233 102.326C207.296 100.032 207.247 97.7349 207.087 95.4457C207.034 94.6873 206.004 89.6753 206.391 89.3267C198.499 96.4448 191.638 104.699 186.049 113.736C180.509 122.694 175.414 132.719 174.069 143.267C173.662 146.473 173.616 149.884 174.347 153.011Z" fill="#F7B385"/>
<path d="M189.102 145.853C188.857 146.175 188.617 146.514 188.517 146.905C188.417 147.296 188.483 147.755 188.781 148.028C189.084 148.307 189.556 148.332 189.944 148.194C190.332 148.055 190.654 147.78 190.961 147.505C194.004 144.801 196.541 141.527 198.457 137.939C197.736 138.346 197.175 139.015 196.478 139.477C195.573 140.079 194.668 140.675 193.798 141.328C192.056 142.639 190.429 144.119 189.102 145.853Z" fill="#E0764C"/>
<path d="M184.578 153.945C185.899 155.143 186.578 157.009 186.338 158.774C185.665 158.339 185.514 157.444 185.24 156.69C184.48 154.598 182.232 153.152 180.014 153.328C179.835 153.342 179.651 153.365 179.478 153.319C178.807 153.139 179.255 152.695 179.619 152.598C180.128 152.463 180.852 152.5 181.376 152.55C182.552 152.663 183.699 153.149 184.578 153.945Z" fill="#E0764C"/>
<path d="M175.098 130.913C179.584 133.515 184.693 135.021 189.868 135.32C192.176 135.453 194.556 135.356 196.852 135.297C198.329 135.259 201.873 134.7 202.693 133.28C204.732 129.75 205.994 125.444 207.071 121.537C210.023 110.838 210.513 99.4532 208.387 88.5553C207.682 84.9412 201.895 90.8205 200.707 91.8229C197.662 94.3921 194.751 97.1204 191.991 99.9936C186.469 105.739 181.544 112.057 177.328 118.819C175.937 121.051 174.624 123.33 173.392 125.653C172.938 126.507 172.483 127.455 172.68 128.402C172.907 129.489 173.913 130.214 174.869 130.778C174.944 130.824 175.02 130.869 175.098 130.913Z" fill="#2F5F7D"/>
<path d="M341.552 179.212C346.487 178.833 350.893 176.116 355.079 173.475C367.022 165.941 378.966 158.408 390.909 150.873C398.15 146.306 405.805 141.263 409.132 133.375C409.917 131.512 410.426 129.368 409.679 127.49C408.64 124.88 405.582 123.71 402.79 123.405C396.457 122.713 390.169 124.957 384.435 127.737C374.946 132.341 366.296 138.473 357.695 144.575C349.415 150.451 340.98 156.493 334.514 164.42C332.465 166.931 328.726 170.89 330.189 174.486C331.76 178.348 337.967 179.487 341.552 179.212Z" fill="#8CC63F"/>
<path d="M372.723 148.436C369.255 154.372 366.783 160.833 364.55 167.334C370.067 165.251 374.898 161.72 379.653 158.23C380.293 157.76 380.943 157.281 381.411 156.639C382.063 155.743 382.298 154.621 382.541 153.54C384.432 145.111 387.746 137.005 392.303 129.667C391.774 130.534 389.998 131.466 389.172 132.084C388.388 132.671 387.611 133.186 386.723 133.598C384.866 134.46 383.387 135.474 381.861 136.87C378.219 140.202 375.208 144.184 372.723 148.436Z" fill="#69952F"/>
<path d="M350.523 163.307C351.916 158.639 352.42 153.707 351.997 148.854C352.031 149.238 349.482 150.717 349.18 151.248C348.661 152.162 349.181 153.613 349.318 154.601C349.72 157.503 350.122 160.405 350.523 163.307Z" fill="#69952F"/>
<path d="M347.015 145.992C347.181 146.502 347.344 147.012 347.505 147.523C349.487 153.798 350.48 162.381 348.792 168.84C347.472 173.894 341.68 181.771 335.243 179.43C330.041 177.537 327.569 170.885 325.907 166.146C323.31 158.739 321.849 151.195 320.256 143.496C316.781 126.702 313.306 109.91 309.83 93.1163C311.608 92.6499 323.115 91.7086 321.138 87.9604C330.908 106.468 340.533 126.01 347.015 145.992Z" fill="#8CC63F"/>
<path d="M310.307 105.115C310.616 105.981 310.979 106.867 311.658 107.487C312.606 108.353 313.988 108.538 315.273 108.512C320.487 108.405 325.528 105.261 327.916 100.625C328.472 99.5468 328.899 98.3472 328.773 97.14C328.631 95.7867 327.823 94.6133 327.174 93.4169C326.323 91.8447 325.721 90.1482 324.882 88.5705C324.042 86.9928 322.911 85.4925 321.325 84.6666C319.665 83.8015 317.681 83.771 315.842 84.1207C314.163 84.44 312.514 85.0741 311.2 86.1658C305.9 90.571 308.36 99.6689 310.307 105.115Z" fill="#A3D165"/>
<path d="M338.695 171.285C339.827 171.199 341.009 171.543 341.846 172.309C342.684 173.076 343.138 174.277 342.908 175.39C342.198 174.181 340.986 173.279 339.624 172.949C338.172 172.597 336.897 172.97 335.596 173.583C335.04 172.037 337.646 171.365 338.695 171.285Z" fill="#69952F"/>
<path d="M327.054 71.2409C325.997 72.227 325.604 73.7883 325.149 75.1601C325.602 76.2747 326.896 76.8195 328.097 76.886C329.298 76.9524 330.491 76.6594 331.694 76.6441C335.066 76.6005 338.046 78.6947 340.759 80.6973C341.2 81.0231 341.65 81.3576 341.96 81.8097C342.269 82.263 342.417 82.8633 342.2 83.3678C341.966 83.9126 341.356 84.221 340.764 84.2613C340.173 84.3016 339.59 84.1218 339.028 83.9344C337.127 83.3003 335.265 82.5485 333.457 81.6844C332.641 81.2944 331.771 80.8705 330.875 80.998C329.642 81.1745 328.802 82.3273 328.252 83.4463C327.364 85.2528 326.842 87.226 325.903 89.0074C324.604 91.472 322.078 93.5281 319.626 94.7723C319.395 94.8889 319.143 95.0044 318.887 94.9663C318.238 94.8693 318.123 93.9922 318.169 93.3385C318.58 87.4515 318.561 81.5363 318.116 75.6515C317.941 73.3547 317.709 70.9925 318.39 68.7916C318.92 67.081 320.084 65.6656 321.475 64.5292C322.162 63.968 322.904 63.4745 323.653 63.0474" fill="#753C17"/>
<path d="M325.665 75.405C323.303 74.298 321.105 72.3662 321.832 69.4658C322.144 68.2215 323.106 67.1243 324.344 66.7866C325.584 66.4488 326.89 66.8672 328.106 67.2823C329.842 67.875 331.578 68.4667 333.314 69.0583C333.753 69.2076 334.203 69.3634 334.559 69.6608C334.916 69.9572 335.164 70.4312 335.062 70.8833C334.736 70.7079 334.397 70.5281 334.029 70.5074C333.659 70.4867 333.251 70.6731 333.138 71.025C332.798 72.0819 336.22 73.5528 336.924 73.9428C338.734 74.9474 340.57 75.9052 342.43 76.8139C346.058 78.5844 349.776 80.1708 353.567 81.5578C356.89 82.7749 360.218 84.0279 363.184 86.0098C364.037 86.5797 364.96 87.5374 364.555 88.4799C364.325 89.0148 363.714 89.3047 363.131 89.3243C362.549 89.3439 361.984 89.1456 361.436 88.9495C355.297 86.7562 349.159 84.5618 343.021 82.3685C340.065 81.3127 337.116 80.1915 334.129 79.2403C331.236 78.3207 328.428 76.7005 325.665 75.405Z" fill="#B5852A"/>
<path d="M347.617 81.814C348.544 82.0286 349.496 82.4852 350.08 83.201C350.793 84.0748 351.758 84.3647 352.865 84.4344C353.983 84.5041 355.205 84.4758 356.084 85.1688C357.114 85.9783 357.278 87.4885 357.056 88.7796C356.834 90.0707 356.314 91.315 356.286 92.6247C356.275 93.1444 356.348 93.6816 356.615 94.1283C356.882 94.575 357.371 94.9117 357.89 94.8888C358.747 94.8507 359.329 93.9202 360.173 93.7785C360.939 93.65 361.681 94.2471 361.968 94.9684C362.253 95.6907 362.184 96.5003 362.068 97.2684C361.951 98.0366 361.793 98.8156 361.913 99.5827C362.009 100.196 362.468 100.883 363.079 100.776C363.53 100.697 363.789 100.23 363.976 99.8115C365.192 97.0745 366.026 94.1675 366.448 91.2017C366.804 88.6892 366.125 86.4784 363.68 85.3257C361.364 84.2339 359.199 82.7456 356.903 81.5852C352.122 79.1674 347.177 76.9926 342.796 73.8699C309 61.3933 331.881 78.1661 347.617 81.814Z" fill="#F2A10A"/>
<path d="M359.493 83.443C359.675 83.7067 359.819 84.0793 359.615 84.3267C359.43 84.5511 359.081 84.5163 358.799 84.4487C357.256 84.0793 355.814 83.2916 354.681 82.1813C354.48 81.9852 354.284 81.7684 354.211 81.4982C354.138 81.228 354.231 80.8934 354.484 80.7758C354.871 80.5971 355.241 80.9556 355.608 81.0155C355.81 81.0482 355.955 81.022 356.149 81.0776C356.406 81.1517 356.668 81.3184 356.907 81.4372C357.888 81.9253 358.861 82.5245 359.493 83.443Z" fill="#F2594B"/>
<path d="M337.716 74.5487C337.896 74.7274 338.071 74.9192 338.176 75.1512C338.279 75.3822 338.303 75.6633 338.181 75.8856C337.968 76.2735 337.434 76.3291 336.995 76.268C335.613 76.0774 334.418 75.2395 333.309 74.394C332.876 74.0649 332.358 73.6411 332.406 73.0353C332.449 72.4992 332.987 72.2453 333.469 72.1789C334.261 72.0699 335.33 72.8228 335.97 73.2009C336.605 73.5757 337.193 74.029 337.716 74.5487Z" fill="#F2594B"/>
<path d="M350.687 80.3386C350.907 80.526 351.142 80.7799 351.082 81.0632C351.011 81.3966 350.596 81.5099 350.255 81.5295C348.486 81.6341 346.685 80.964 345.415 79.7295C345.16 79.4822 344.914 79.1826 344.903 78.8274C344.863 77.5569 346.806 78.1584 347.447 78.4079C348.624 78.8666 349.724 79.5214 350.687 80.3386Z" fill="#F2594B"/>
<path d="M343.815 75.2833C344.056 75.5067 344.29 75.7486 344.424 76.0482C344.56 76.3478 344.578 76.7172 344.397 76.9918C344.241 77.2282 343.961 77.36 343.68 77.3949C343.399 77.4287 343.115 77.3764 342.84 77.3099C341.672 77.0288 340.501 76.4404 339.905 75.3966C339.703 75.0436 339.577 74.6013 339.75 74.233C339.906 73.9007 340.275 73.71 340.64 73.6686C341.861 73.528 342.982 74.5097 343.815 75.2833Z" fill="#F2594B"/>
<path d="M321.721 83.247C321.606 78.758 320.164 74.3942 318.249 70.3323C320.075 68.9682 321.594 67.1954 322.661 65.1819C324.588 67.8372 327.058 70.0959 329.874 71.7771C330.588 72.2031 331.351 72.6008 332.179 72.6662C333.007 72.7315 333.918 72.3894 334.3 71.6507C334.906 70.4816 333.966 69.136 333.084 68.1575C331.821 66.7564 330.559 65.3563 329.296 63.9551C328.018 62.5375 326.613 61.0437 324.747 60.6384C322.741 60.2037 320.719 61.1331 318.876 62.0385C315.99 63.4561 312.942 65.0196 311.316 67.7936C309.92 70.1722 309.8 73.0671 309.835 75.8248C309.901 81.1082 310.398 86.374 310.896 91.6345C311.109 93.8877 312.016 95.6125 314.412 96.0298C315.796 96.2717 317.224 96.0614 318.216 95.0274C320.931 92.1978 321.816 86.9722 321.721 83.247Z" fill="#A1633A"/>
<path d="M327.363 62.0712C328.798 62.1714 330.173 62.9309 331.023 64.0913C331.549 63.4397 332.59 63.419 333.315 63.8374C334.041 64.2558 334.514 64.9978 334.91 65.7354C335.357 65.1939 336.222 65.1798 336.841 65.5121C337.46 65.8433 337.89 66.4338 338.299 67.0048C338.227 67.1878 339.361 68.4888 339.51 68.6947C340.476 70.0436 341.368 71.4251 342.256 72.8274C342.482 73.1826 342.715 73.6076 342.568 74.0009C342.459 74.2918 342.165 74.4759 341.866 74.5588C341.031 74.7908 340.058 74.3071 339.738 73.5008C339.804 73.6664 338.953 74.112 338.824 74.1371C338.494 74.2014 338.078 74.2123 337.744 74.1709C336.883 74.0619 336.095 73.4812 335.736 72.6891C335.489 73.3264 334.646 73.5574 333.997 73.3439C333.348 73.1292 332.861 72.5953 332.439 72.0571C332.018 71.5189 331.612 70.9425 331.034 70.5796C330.32 70.1318 329.511 70.4489 328.848 70.0142C328.555 69.8224 328.325 69.5511 328.098 69.2841C327.048 68.0453 325.998 66.8065 324.949 65.5665C324.499 65.0359 323.26 63.5737 323.944 62.8895C324.648 62.1823 326.434 62.0058 327.363 62.0712Z" fill="#A1633A"/>
<path d="M332.984 69.3038C333.279 69.9009 333.551 70.535 333.625 71.2029C333.658 71.5069 333.655 71.7978 333.532 72.0833C333.403 72.3808 333.177 72.4941 332.986 72.7251C333.212 72.4538 333.341 72.104 333.348 71.751C333.356 71.3065 333.123 70.9033 332.988 70.4925C332.823 69.9913 332.6 69.5021 332.373 69.0271C331.921 68.0824 331.382 67.1813 330.789 66.3195C329.739 64.7952 328.522 63.394 327.277 62.0255C327.485 61.9242 327.742 61.9743 327.939 62.0963C328.137 62.2184 328.287 62.4014 328.432 62.5823C330.134 64.6939 331.781 66.8741 332.984 69.3038Z" fill="#753C17"/>
<path d="M335.36 70.838C334.356 68.3647 332.683 66.2291 331.034 64.1306C332.181 64.7702 332.914 65.9415 333.575 67.0779C334.195 68.1435 334.794 69.2211 335.372 70.3096C335.587 70.7138 335.801 71.1246 335.904 71.5702C336.006 72.0158 335.987 72.5072 335.755 72.9006C335.659 72.5715 335.742 72.2283 335.684 71.8851C335.622 71.5201 335.487 71.1834 335.36 70.838Z" fill="#753C17"/>
<path d="M338.944 71.3367C337.789 69.3657 336.422 67.52 334.871 65.842C335.43 66.1035 335.857 66.5786 336.249 67.0547C337.427 68.4853 338.447 70.0445 339.294 71.6919C339.49 72.0744 339.874 72.6159 339.886 73.0517C339.627 73.0256 339.558 72.5614 339.478 72.3675C339.329 72.0101 339.139 71.6712 338.944 71.3367Z" fill="#753C17"/>
<path d="M383.567 142.76C383.114 144.2 382.722 145.651 382.389 147.102C381.341 151.685 380.893 156.408 381.102 161.106C381.301 165.567 381.558 170.671 382.673 174.993C384.14 180.686 387.68 185.592 390.043 190.976C392.189 195.864 393.346 201.178 393.46 206.514C393.588 212.395 390.584 218.161 394.452 223.373C398.373 228.657 404.245 233.23 409.489 237.122C416.578 242.384 424.338 246.68 432.373 250.312C439.345 253.463 446.529 256.123 453.78 258.556C457.41 259.774 461.059 260.934 464.715 262.07C465.39 262.28 466.416 262.848 467.077 262.56C467.68 262.298 468.43 260.984 468.894 260.484C470.181 259.099 471.541 257.783 472.782 256.355C474.254 254.661 476.027 252.398 476.551 250.16C477.03 248.113 475.253 244.816 474.609 242.843C472.899 237.605 471.061 232.409 469.104 227.258C467.688 223.538 465.85 219.868 464.634 216.085C464.216 214.783 464.269 213.344 463.978 211.994C463.584 210.166 463.268 208.324 463.055 206.467C461.238 190.533 466.805 174.593 466.205 158.568C465.747 146.291 456.851 136.598 446.511 130.926C436.701 125.545 425.487 123.32 414.384 121.927C408.2 121.151 401.456 120.276 395.799 123.541C392.491 125.45 390.5 128.283 388.587 131.484C386.472 135.023 384.805 138.828 383.567 142.76Z" fill="#8CC63F"/>
<path d="M472.518 235.439C470.94 231.899 469.364 228.36 467.786 224.82C466.798 222.603 465.81 220.384 464.821 218.167C463.98 216.279 462.811 214.712 461.677 212.976C459.39 209.478 456.705 206.304 454.318 202.891C453.483 201.698 453.385 200.404 453.028 199.019C452.484 196.913 452.127 194.819 452.106 192.637C452.022 183.622 450.38 174.572 446.79 166.303C446.014 164.515 444.889 162.049 442.953 161.284C442.52 162.011 442.603 163.351 442.438 164.18C442.187 165.452 441.941 166.723 441.716 167.999C441.258 170.596 440.867 173.206 440.544 175.823C439.913 180.921 439.545 186.049 439.418 191.184C439.341 194.309 439.299 197.438 439.456 200.562C439.601 203.436 440.183 206.224 439.89 209.055C439.245 215.28 439.863 221.976 441.691 227.956C442.677 231.182 444.096 234.286 445.958 237.102C446.864 238.473 447.876 239.775 448.994 240.983C449.924 241.986 451.105 242.701 451.981 243.709C454.132 246.184 455.956 248.582 458.669 250.525C461.158 252.308 463.944 253.679 466.885 254.536C468.251 254.933 469.695 255.225 471.093 254.957C473.219 254.55 474.953 252.845 475.757 250.836C476.563 248.826 476.531 246.56 476.06 244.447C475.59 242.335 474.704 240.342 473.822 238.364C473.388 237.389 472.953 236.414 472.518 235.439Z" fill="#69952F"/>
<path d="M431.639 95.9163C432.103 104.682 432.567 113.447 433.03 122.213C433.15 124.475 433.27 126.737 433.39 128.999C433.472 130.571 434.161 133.004 433.035 134.166C430.823 136.45 426.31 136.083 423.466 135.914C420.479 135.737 417.484 135.558 414.543 135.008C412.056 134.543 409.513 133.752 407.702 131.983C406.312 130.626 405.496 128.599 405.789 126.654C406.084 124.693 405.878 122.848 405.946 120.831C406.117 115.704 406.426 110.582 406.872 105.472C415.54 103.404 424.473 101.217 431.639 95.9163Z" fill="#A1633A"/>
<path d="M406.15 116.528C406.103 117.329 406.074 118.2 406.537 118.855C407.062 119.599 408.053 119.829 408.958 119.926C410.492 120.09 412.049 120.033 413.566 119.752C417.114 119.096 420.416 117.187 422.755 114.441C424.598 112.278 425.829 109.652 426.676 106.94C427.522 104.228 427.999 101.417 428.476 98.6164C420.406 98.4159 412.346 102.398 407.601 108.929C406.765 110.08 406.486 110.836 406.403 112.244C406.32 113.671 406.235 115.099 406.15 116.528Z" fill="#753C17"/>
<path d="M437.172 118.569C437.655 120.594 438.014 122.659 438.123 124.741C438.211 126.432 438.392 128.899 437.603 130.435C436.151 133.262 432.317 135.236 429.467 136.217C426.247 137.327 422.81 137.669 419.405 137.775C416.05 137.881 412.628 137.755 409.455 136.66C406.282 135.564 403.359 133.378 402.024 130.299C400.501 126.783 401.147 122.65 401.688 118.985C401.873 117.726 402.211 116.313 403.43 115.652C404.282 115.189 405.379 115.226 406.329 115.499C407.338 115.79 408.253 116.324 409.201 116.763C410.137 117.196 411.142 117.423 412.163 117.63C414.319 118.067 416.522 118.271 418.721 118.246C423.119 118.194 427.513 117.224 431.502 115.361C432.362 114.959 433.274 114.504 434.216 114.638C435.081 114.76 435.814 115.378 436.277 116.12C436.739 116.859 436.969 117.719 437.172 118.569Z" fill="#A3D165"/>
<path d="M435.189 95.1231C430.069 105.314 417.467 112.084 406.242 112.007C399.332 111.959 391.874 110.244 388.808 103.438C387.29 100.068 386.903 96.3086 386.718 92.6182C386.648 91.2181 386.606 89.8158 386.593 88.4136C386.521 80.6297 387.345 72.8 389.414 65.2831C390.44 61.5524 391.775 57.9035 393.452 54.4157C394.061 53.1486 394.595 51.6875 395.81 50.8866C397.056 50.064 398.517 49.48 399.803 48.702C403.142 46.6809 406.975 45.7308 410.852 45.5314C412.552 45.4442 414.257 45.4976 415.95 45.6567C419.823 46.0206 423.681 46.9402 427.122 48.7554C433.996 52.3815 438.709 59.4605 440.354 67.0569C441.415 71.9513 441.282 77.0494 440.287 81.9437C439.319 86.6909 437.345 90.8313 435.189 95.1231Z" fill="#A1633A"/>
<path d="M427.167 69.2153C428.416 76.8248 432.708 84.065 440.805 85.0009C442.688 85.2189 444.561 84.795 445.98 83.53C447.396 82.2661 448.862 81.413 449.892 79.734C450.874 78.1312 451.448 76.3116 451.873 74.4812C452.979 69.7132 453.125 64.7252 452.299 59.9005C451.885 57.4795 451.177 55.0029 449.533 53.1768C448.185 51.6808 446.306 50.7449 444.362 50.2197C440.809 49.262 436.881 49.6314 433.656 51.403C427.134 54.9855 426.063 62.4839 427.167 69.2153Z" fill="#333333"/>
<path d="M429.184 56.194C428.998 56.328 433.154 59.7427 433.62 59.9824C435.129 60.7593 436.978 61.1788 438.65 61.4109C442.534 61.9491 446.66 61.1777 449.89 58.895C453.951 56.024 456.284 50.6819 455.101 45.8507C453.917 41.0207 448.97 37.2518 444.037 37.886C445.442 29.0332 439.555 19.5986 430.986 16.9684C422.418 14.3382 412.251 18.8457 408.448 26.9619C404.297 21.7865 396.666 19.7381 390.482 22.1406C384.297 24.5431 380.05 31.2058 380.483 37.826C375.523 38.543 371.098 42.1832 369.44 46.9119C367.782 51.6407 368.964 57.2476 372.39 60.9042C369.672 60.5305 367.047 62.897 366.667 65.6155C366.288 68.3329 367.823 71.084 370.067 72.6628C372.312 74.2416 375.146 74.7875 377.889 74.7581C380.234 74.733 382.6 74.2917 384.747 73.3351C385.84 72.8481 386.975 72.2815 387.825 71.4185C388.563 70.6689 388.469 69.6654 388.736 68.6914C389.533 65.7833 390.329 62.8741 391.126 59.9661C391.157 59.8691 393.096 59.8866 393.272 59.8691C396.512 59.5619 399.805 58.8558 402.582 57.082C404.464 55.8791 406.001 54.2251 407.142 52.3108C409.485 55.7473 413.25 58.1792 417.346 58.9005C421.438 59.6218 425.809 58.6226 429.184 56.194Z" fill="black"/>
<path d="M446.727 77.0244C449.952 78.3308 452.048 81.837 451.991 85.3171C451.934 88.7961 449.889 92.1007 446.971 93.9988C444.054 95.8968 440.37 96.447 436.944 95.8358C435.424 95.5645 433.813 94.975 433.032 93.6425C432.213 92.2424 432.56 90.4707 433.04 88.9225C434.849 83.0998 438.759 73.796 446.727 77.0244Z" fill="#A1633A"/>
<path d="M443.384 81.8872C440.638 84.2712 438.998 87.8809 439.008 91.5179" stroke="black" stroke-miterlimit="10" stroke-linecap="round" stroke-linejoin="round"/>
<path d="M445.472 87.616C443.78 87.836 442.011 87.4275 440.588 86.4861" stroke="black" stroke-miterlimit="10" stroke-linecap="round" stroke-linejoin="round"/>
<path d="M406.987 74.4192C406.963 73.3165 406.629 72.0036 405.58 71.6626C404.864 71.4294 404.066 71.7737 403.533 72.3054C403.001 72.8371 402.668 73.5312 402.303 74.1893C401.292 76.0143 399.952 77.6563 398.368 79.0128C397.657 79.6208 396.888 80.1841 396.347 80.9457C395.805 81.7073 395.525 82.7391 395.918 83.5868C396.247 84.2961 396.996 84.7483 397.767 84.8747C398.539 85.0022 399.331 84.8431 400.073 84.5969C404.681 83.0617 407.092 79.1457 406.987 74.4192Z" fill="#753C17"/>
<path d="M414.658 71.1396C416.417 69.9519 418.777 69.71 420.739 70.5163C422.702 71.3226 424.21 73.1531 424.625 75.2353" stroke="black" stroke-miterlimit="10" stroke-linecap="round" stroke-linejoin="round"/>
<path d="M414.282 81.0154C413.861 81.6234 413.204 82.2107 412.476 82.0821C411.806 81.9634 411.385 81.2846 411.195 80.6319C410.878 79.5445 410.969 78.3438 411.443 77.3142C411.96 76.1908 414.149 74.356 415.229 75.9043C416.164 77.2455 415.083 79.8616 414.282 81.0154Z" fill="black"/>
<path d="M400.775 67.9894C400.203 66.8345 399.492 65.7231 398.507 64.8929C397.522 64.0615 396.23 63.5353 394.95 63.6736C393.668 63.812 392.443 64.7033 392.115 65.9487" stroke="black" stroke-miterlimit="10" stroke-linecap="round" stroke-linejoin="round"/>
<path d="M393.942 75.2058C393.711 75.5686 393.437 75.9151 393.079 76.1537C392.72 76.3924 392.266 76.5133 391.851 76.4C391.037 76.1788 390.695 75.2145 390.605 74.3756C390.501 73.4058 390.569 72.4045 390.919 71.4947C391.271 70.585 391.924 69.7732 392.797 69.3374C396.153 67.6649 394.762 73.9179 393.942 75.2058Z" fill="black"/>
<path d="M405.1 93.9529C408.042 94.3255 411.071 94.0139 413.848 92.9712C412.737 96.813 409.214 99.7298 405.296 100.532C402.468 101.111 399.505 100.654 396.858 99.4737C398.837 96.7378 401.818 94.7439 405.1 93.9529Z" fill="#F57A6F"/>
<path d="M397.305 91.1069C399.636 92.6465 402.33 93.602 405.101 93.9529C401.818 94.7439 398.837 96.7378 396.86 99.4737C395.84 99.0194 394.864 98.4681 393.966 97.8132C395.988 96.1919 397.612 93.6805 397.305 91.1069Z" fill="black"/>
<path d="M94.2114 145.212C93.8497 145.511 93.4879 145.812 93.1262 146.112C88.2918 137.309 86.6531 126.794 88.5805 116.937C88.9553 115.023 89.5426 112.999 91.0604 111.774C92.8222 110.351 95.4328 110.416 97.5019 111.339C100.726 112.779 103.793 115.641 106.814 117.557C110.351 119.801 113.878 122.061 117.307 124.469C125 129.871 133.052 134.761 141.393 139.096C142.164 133.081 143.131 127.081 143.565 121.045C144.017 114.746 144.469 108.449 144.921 102.151C145.215 98.0574 145.509 93.9639 145.803 89.8693C151.014 90.2311 156.284 89.7408 161.34 88.4246C160.426 88.6621 162.301 100.023 162.411 100.982C163.041 106.474 163.472 111.989 163.705 117.513C164.166 128.437 163.852 139.394 162.758 150.273C162.515 152.685 162.228 155.125 161.364 157.39C159.867 161.316 156.62 163.885 152.551 164.632C147.475 165.565 142.243 164.992 137.164 164.077C121.214 161.202 105.882 154.943 92.4768 145.833" fill="#F7B385"/>
<path d="M131.641 133.756C133.6 139.201 137.849 143.78 143.132 146.14C143.264 146.199 143.401 146.257 143.545 146.251C143.689 146.245 143.839 146.153 143.864 146.012C143.88 145.923 143.846 145.834 143.812 145.75C142.911 143.532 142.01 141.313 141.108 139.095L131.641 133.756Z" fill="#E0764C"/>
<path d="M149.036 157.372C148.869 155.908 149.252 154.371 150.16 153.209C151.068 152.048 152.508 151.296 153.982 151.301C155.456 151.307 156.924 152.103 157.659 153.38C156.875 153.672 156.049 153.156 155.242 152.939C153.841 152.563 152.308 153.137 151.255 154.133C150.201 155.129 149.566 156.49 149.129 157.871C148.966 157.358 148.991 156.787 149.199 156.29" fill="#E0764C"/>
<path d="M167.671 71.1079C168.161 73.5594 167.642 76.0959 166.96 78.5017C166.117 81.4773 165.018 84.3886 163.551 87.1115C162.352 89.3342 160.818 91.51 158.576 92.6726C156.333 93.8352 153.246 93.6772 151.633 91.7345C151.134 92.6377 150.212 93.2958 149.196 93.4724C148.179 93.6489 147.088 93.3427 146.314 92.6606C145.032 91.5329 145.238 89.5979 144.431 88.1084C143.584 86.5449 142.257 85.2309 140.645 84.4682C139.848 84.0912 138.877 83.7153 138.669 82.8589C138.527 82.2694 138.836 81.6385 139.307 81.255C139.776 80.8704 140.379 80.6917 140.974 80.5708C142.9 80.1796 144.899 80.3136 146.838 79.9846C147.922 79.8015 149.057 79.4213 149.71 78.5365C150.286 77.7553 150.348 76.7758 150.339 75.841C150.33 75.0401 150.529 74.2121 150.84 73.4646C151.482 71.9163 152.951 70.8889 154.403 70.051C156.584 68.7914 158.878 67.8163 161.253 66.9915C162.034 66.7202 162.934 66.1482 163.785 66.1787C164.732 66.2124 165.547 67.0612 166.106 67.7465C166.894 68.7108 167.427 69.8875 167.671 71.1079Z" fill="#F7B385"/>
<path d="M157.47 81.7694C157.945 81.3205 158.506 80.816 159.083 80.5044C159.587 80.2331 160.016 80.0762 160.465 79.6807C161.45 78.8123 162.239 77.7216 162.748 76.5111C162.933 76.0698 163.083 75.5708 162.924 75.1186C162.759 74.6468 162.281 74.3385 161.792 74.235C160.822 74.0291 159.748 74.1882 158.875 74.6229C157.343 75.3867 155.906 76.3422 154.33 77.009C152.752 77.6748 150.965 78.0387 149.325 77.5484C148.485 77.2978 147.906 77.1583 147.013 77.3533C146.217 77.5277 145.458 77.8818 144.82 78.3906C144.35 78.7654 143.93 79.247 143.801 79.8332C143.598 80.7593 144.167 81.6822 144.838 82.3523C146.292 83.8036 148.32 84.6371 149.57 86.2671C149.991 86.8152 150.368 87.4852 151.03 87.6846C151.507 87.8285 152.023 87.6857 152.475 87.4754C153.606 86.9492 154.428 86.0329 154.967 84.9258C155.505 83.8145 156.568 82.6225 157.47 81.7694Z" fill="#E0764C"/>
<path d="M162.64 73.9767C164.055 77.5571 159.724 79.0977 157.095 79.7918C149.498 81.7977 142.255 85.1361 135.796 89.6088C133.203 91.4044 130.591 93.443 127.472 93.9115C126.143 94.1109 124.574 93.8995 123.834 92.7794C123.348 92.0451 123.345 91.0721 123.619 90.2342C123.892 89.3963 124.411 88.6641 124.927 87.9505C127.253 84.7341 129.679 81.5917 132.145 78.481C133.378 76.9251 134.62 75.3779 135.866 73.8318C136.883 72.569 138.121 71.6407 139.466 70.72C142.983 68.3132 147.386 67.2465 151.62 67.7335C154.777 68.0963 157.824 69.3167 160.39 71.1864C161.297 71.8499 162.202 72.8665 162.64 73.9767Z" fill="#B5852A"/>
<path d="M123.896 89.5369C123.748 89.879 123.617 90.2233 123.507 90.5698C122.7 93.1063 122.363 95.7899 122.52 98.4474C122.546 98.8919 122.588 99.3452 122.776 99.7494C122.963 100.153 123.324 100.502 123.765 100.56C124.186 100.616 124.607 100.396 124.892 100.08C125.175 99.7636 125.343 99.3615 125.484 98.9606C125.689 98.3809 125.853 97.7828 126.145 97.2423C126.437 96.7019 126.882 96.2116 127.467 96.0231C128.154 95.8019 128.901 96.0253 129.619 95.9512C130.865 95.8226 131.858 94.806 132.41 93.6816C132.961 92.5572 133.177 91.3031 133.569 90.1133C133.983 88.8559 134.716 87.6073 135.852 86.8707C137.1 86.0612 138.752 86.1712 139.973 85.2505C140.978 84.4922 141.497 83.2501 142.401 82.3752C145.08 79.7798 150.088 81.1799 152.688 78.505C153.279 77.8959 153.717 77.0951 154.482 76.7268C155.367 76.2997 156.408 76.5765 157.387 76.6626C158.195 76.7334 159.112 76.6179 159.624 75.9881C160.228 75.2439 159.966 74.0541 159.262 73.4026C158.559 72.751 157.553 72.5396 156.594 72.508C155.636 72.4764 154.673 72.5974 153.719 72.4928C151.825 72.2836 150.154 71.2114 148.497 70.2679C146.84 69.3254 144.985 68.4624 143.098 68.7337C141.204 69.0061 139.873 70.3136 138.51 71.5296C137.249 72.6551 135.971 73.7349 134.775 74.9345C132.016 77.702 129.516 80.7288 127.318 83.9605C126.152 85.6766 124.746 87.5735 123.896 89.5369Z" fill="#F2A10A"/>
<path d="M136.988 80.2012C136.614 80.7776 136.273 81.4423 136.385 82.12C136.51 82.8674 137.207 83.4481 137.96 83.5418C138.712 83.6356 139.479 83.2945 140.005 82.7497C140.532 82.205 140.839 81.4771 140.989 80.734C141.14 79.9844 141.126 79.1487 140.687 78.5233C139.361 76.6318 137.69 79.1204 136.988 80.2012Z" fill="#F2594B"/>
<path d="M137.034 81.3498C136.948 81.5971 136.882 81.8673 136.952 82.1201C137.055 82.4916 137.44 82.7368 137.824 82.7629C138.209 82.7891 138.584 82.6333 138.906 82.4208C139.73 81.8771 140.275 80.9335 140.335 79.9475C140.372 79.3537 140.023 78.2706 139.219 78.5463C138.879 78.6629 138.606 78.9908 138.368 79.2458C138.097 79.5356 137.846 79.8429 137.626 80.173C137.384 80.5402 137.179 80.9335 137.034 81.3498Z" fill="#F57A6F"/>
<path d="M144.125 77.0407C143.898 77.5179 143.764 78.0943 144.002 78.5661C144.242 79.0444 144.817 79.2819 145.352 79.2667C145.887 79.2514 146.392 79.028 146.87 78.7872C147.52 78.4582 148.166 78.0736 148.605 77.4928C149.044 76.9121 149.237 76.0949 148.913 75.4423C148.478 74.563 147.254 74.5172 146.458 74.8506C145.448 75.2723 144.595 76.047 144.125 77.0407Z" fill="#F2594B"/>
<path d="M144.801 77.6322C144.688 77.8828 144.597 78.1814 144.725 78.4243C144.83 78.6215 145.06 78.7272 145.283 78.7359C145.506 78.7447 145.724 78.6727 145.93 78.5889C146.498 78.359 147.03 78.0375 147.483 77.6267C147.762 77.374 148.016 77.0798 148.152 76.729C148.287 76.3781 148.289 75.9597 148.089 75.6416C147.801 75.185 147.157 75.0717 146.725 75.3539C146.182 75.708 145.707 76.1853 145.331 76.7115C145.125 77.0003 144.946 77.3086 144.801 77.6322Z" fill="#F57A6F"/>
<path d="M133.005 76.7126C132.848 77.1102 132.78 77.5973 133.039 77.9383C133.343 78.3404 133.943 78.348 134.435 78.2412C135.158 78.0843 135.853 77.7542 136.376 77.2312C136.899 76.7082 137.237 75.9847 137.222 75.246C137.2 73.9984 135.988 73.9505 135.066 74.3536C134.184 74.7393 133.347 75.8463 133.005 76.7126Z" fill="#F2594B"/>
<path d="M133.705 76.4501C133.517 76.7497 133.354 77.1267 133.51 77.4449C133.682 77.7957 134.153 77.8774 134.54 77.8142C134.945 77.7477 135.332 77.5702 135.649 77.3076C135.936 77.07 136.207 76.7715 136.331 76.4174C136.415 76.1755 136.487 75.9227 136.475 75.6667C136.463 75.4106 136.354 75.147 136.14 75.0042C135.928 74.8604 135.644 74.8582 135.399 74.9367C135.155 75.0151 134.941 75.1633 134.73 75.3104C134.511 75.464 134.32 75.5904 134.155 75.7985C133.99 76.0055 133.846 76.2256 133.705 76.4501Z" fill="#F57A6F"/>
<path d="M128.746 84.1695C128.793 84.4539 128.939 84.735 129.189 84.881C129.585 85.112 130.092 84.9398 130.482 84.698C131.474 84.0834 132.923 82.2758 132.303 81.0076C131.58 79.529 129.918 80.4617 129.338 81.4652C128.911 82.2028 128.601 83.3153 128.746 84.1695Z" fill="#F2594B"/>
<path d="M129.55 83.1737C129.556 83.4145 129.624 83.6924 129.844 83.7915C130.045 83.882 130.28 83.7763 130.464 83.6521C130.842 83.396 131.159 83.0506 131.382 82.6529C131.523 82.4034 131.627 82.1256 131.63 81.839C131.632 81.5525 131.52 81.2561 131.292 81.0818C130.273 80.3038 129.531 82.496 129.55 83.1737Z" fill="#F57A6F"/>
<path d="M151.923 76.7182C151.706 76.8468 151.481 76.9601 151.242 77.0494C150.366 77.3818 148.677 77.4166 148.115 76.5166C147.878 76.1386 147.834 75.6483 147.996 75.2331C147.097 75.9294 146.118 76.6572 144.981 76.703C144.537 76.7204 144.056 76.6104 143.766 76.2737C143.501 75.9642 143.447 75.5142 143.54 75.1165C143.632 74.7189 143.855 74.3658 144.092 74.0346C143.251 74.745 142.221 75.2299 141.137 75.4249C140.794 75.487 140.439 75.5197 140.098 75.4434C139.757 75.3671 139.431 75.1689 139.268 74.8616C139.102 74.5511 139.12 74.1675 139.24 73.8363C139.36 73.5051 139.569 73.2152 139.782 72.9331C139.287 73.3525 138.737 73.7361 138.105 73.8832C137.473 74.0292 136.743 73.8951 136.313 73.4103C135.725 72.7489 135.883 71.6931 136.333 70.9304C137.364 69.1828 139.015 68.1651 140.639 67.0309C142.382 65.8138 144.177 64.6687 146.058 63.6761C147.129 63.1117 148.261 62.5876 149.47 62.5211C150.679 62.4547 151.987 62.9406 152.59 63.991C153.367 63.4211 154.213 62.8371 155.176 62.8099C156.139 62.7826 157.181 63.5856 157.022 64.5357C157.966 64.1228 158.97 63.7011 159.991 63.8384C161.012 63.9757 161.999 64.9106 161.794 65.9206C161.936 65.2211 164.446 66.2758 164.765 66.4632C165.54 66.9219 166.182 67.6508 166.409 68.5236C166.635 69.3963 166.396 70.4053 165.712 70.9936C164.867 71.7215 163.622 71.6702 162.511 71.5558C161.777 71.4796 161.011 71.3968 160.281 71.5547C159.572 71.7073 158.86 72.093 158.214 72.4155C156.708 73.1662 155.246 74.0259 153.953 75.1078C153.29 75.6602 152.658 76.2813 151.923 76.7182Z" fill="#F7B385"/>
<path d="M154.078 69.4123C156.33 67.6538 158.92 66.2493 161.733 65.7503C160.637 65.3984 159.444 65.7328 158.375 66.16C155.045 67.487 152.095 69.737 149.902 72.5699C149.285 73.3664 148.724 74.2097 148.238 75.0923C148.581 74.5758 149.105 74.1269 149.531 73.6758C150.005 73.1735 150.485 72.6767 150.974 72.1896C151.957 71.2079 152.983 70.2676 154.078 69.4123Z" fill="#E0764C"/>
<path d="M157.014 64.4442C155.732 64.3581 154.447 64.6894 153.278 65.2233C152.109 65.7582 151.043 66.4915 150.005 67.2488C148.689 68.2087 147.4 69.2187 146.303 70.4216C145.31 71.5101 144.497 72.7544 144.005 74.1468C144.153 73.6881 144.552 73.2305 144.827 72.8383C145.141 72.3926 145.473 71.959 145.82 71.5384C146.515 70.6984 147.277 69.9117 148.092 69.1871C149.716 67.7434 151.56 66.5449 153.541 65.6515C154.66 65.1492 155.823 64.7428 157.014 64.4442Z" fill="#E0764C"/>
<path d="M148.3 65.4617C149.568 64.76 150.937 64.1477 152.385 64.1008C151.247 63.6323 149.948 64.0398 148.824 64.5388C146.542 65.551 144.412 66.9566 142.736 68.8056C142.161 69.4386 141.643 70.1196 141.158 70.8235C140.696 71.4936 140.313 72.2552 139.82 72.8936C139.841 72.6158 140.166 72.3369 140.334 72.1299C140.574 71.8346 140.82 71.5448 141.073 71.2604C141.577 70.6905 142.106 70.1425 142.656 69.6173C143.741 68.58 144.912 67.631 146.152 66.7855C146.848 66.3105 147.564 65.8692 148.3 65.4617Z" fill="#E0764C"/>
<path d="M25.9304 256.102C28.9125 265.74 35.0065 274.39 43.0791 280.443C52.2086 287.287 63.4246 290.668 74.4957 293.434C76.7413 293.995 79.1776 294.523 81.3099 293.622C84.3944 292.319 85.5941 288.609 86.0735 285.294C88.124 271.116 83.5184 256.699 76.6432 244.131C73.0444 237.552 68.746 231.242 63.0574 226.356C57.3688 221.472 50.1591 218.089 42.6607 218.011C22.3849 217.804 21.4718 241.693 25.9304 256.102Z" fill="black"/>
<path d="M98.3801 182.045C98.136 177.595 98.6601 173.051 99.5688 168.678C101.172 160.969 103.912 153.537 105.632 145.853C107.353 138.17 108.011 129.985 105.467 122.533C99.3313 104.568 75.4436 102.522 59.7789 107.497C46.2061 111.808 30.9717 123.258 31.5568 138.784C31.8249 145.912 34.2829 152.748 35.7778 159.724C38.8188 173.915 37.8044 188.952 32.885 202.607C31.023 207.776 28.6096 212.77 27.1986 218.095C26.6462 220.181 25.2057 224.424 26.0534 226.531C26.8063 228.401 29.4736 229.05 31.2398 229.768C42.0167 234.149 53.9486 235.701 65.4882 234.234C77.9409 232.651 89.925 227.545 99.6941 219.662C101.931 217.858 105.467 215.303 106.806 212.732C108.308 209.85 106.71 205.106 105.553 202.389C104.034 198.823 101.866 195.555 100.446 191.949C99.1984 188.779 98.5664 185.439 98.3801 182.045Z" fill="#F2594B"/>
<path d="M78.59 133.469C78.0812 134.575 78.1215 135.942 78.7796 136.967C79.4377 137.992 80.7212 138.606 81.9186 138.382C83.3394 138.118 84.3647 136.802 84.7798 135.419C85.0914 134.377 85.1143 133.186 84.5368 132.264C82.9526 129.734 79.5662 131.349 78.59 133.469Z" fill="#B54338"/>
<path d="M78.3777 151.086C78.345 152.479 78.9595 153.971 80.1984 154.608C81.5026 155.278 83.2295 154.786 84.1404 153.637C85.9066 151.409 84.6209 148.203 82.4581 146.783C79.7037 144.972 78.43 148.886 78.3777 151.086Z" fill="#B54338"/>
<path d="M74.6415 167.794C74.4846 169.498 75.3116 171.323 76.8348 172.103C78.2229 172.814 79.9858 172.564 81.2693 171.678C83.0878 170.423 83.9377 167.885 83.1401 165.824C82.4264 163.982 80.0414 162.394 78.017 162.876C76.1723 163.315 74.7962 166.107 74.6415 167.794Z" fill="#B54338"/>
<path d="M55.5708 113.559C55.8977 115.721 57.3959 117.767 58.9213 119.282C60.7528 121.103 62.9941 122.457 65.2974 123.625C68.2643 125.129 71.4458 126.368 74.7679 126.518C77.5856 126.645 80.5939 125.911 82.7883 124.072C84.0816 122.989 83.8364 121.338 83.9661 119.732C84.1175 117.862 84.2254 115.988 84.294 114.113C84.5686 106.607 84.2058 99.0848 83.393 91.6201C83.089 88.8287 82.7142 86.0121 81.7074 83.3906C80.7006 80.7691 78.9944 78.3263 76.5548 76.9338C74.1796 75.5773 71.216 75.4575 68.6642 76.3705C66.7662 77.0493 64.2329 78.4952 63.4942 80.4815C62.263 83.796 61.6942 87.5201 60.8291 90.949C59.9454 94.4498 59.0618 97.9495 58.1782 101.45C57.3229 104.763 56.5209 108.088 55.6667 111.4C55.4815 112.123 55.463 112.847 55.5708 113.559Z" fill="#F7B385"/>
<path d="M67.2597 104.151C71.2312 109.344 77.2903 112.89 83.7623 113.811C85.6048 105.257 83.8811 95.9924 79.087 88.6726C77.2402 85.8528 74.7865 83.203 71.5559 82.2431C67.0974 80.9182 62.117 83.9134 62.0745 88.6193C62.0243 94.1641 63.893 99.7492 67.2597 104.151Z" fill="#E0764C"/>
<path d="M57.1323 124.2C57.3916 124.721 57.6738 125.231 57.9908 125.725C60.7943 130.084 65.1253 133.45 70.0589 135.049C70.8979 135.321 71.8251 135.541 72.6434 135.213C74.147 134.61 74.622 133.016 75.3815 131.735C76.3577 130.09 77.4832 128.534 78.7428 127.093C79.1252 126.655 79.5425 126.214 80.0884 126.016C80.9219 125.714 81.8382 126.047 82.6609 126.378C83.928 126.887 85.1952 127.396 86.4613 127.905C87.1314 128.174 87.857 128.448 88.5576 128.272C91.3273 127.579 90.5243 121.108 90.2497 119.227C90.0089 117.579 89.45 115.983 89.0512 114.362C88.623 112.618 88.0172 110.919 87.248 109.296C86.8633 108.486 86.4384 107.693 85.9732 106.925C85.7411 106.542 85.4992 106.164 85.2475 105.791C85.1168 105.597 84.5327 105.008 84.5371 104.794C84.4837 107.231 84.3693 109.668 84.195 112.1C84.0381 114.299 84.0294 116.679 83.465 118.817C83.0357 120.44 82.431 122.123 81.1322 123.188C79.6177 124.431 77.4756 124.57 75.5318 124.322C71.0395 123.75 66.8795 121.419 63.649 118.246C59.9401 114.603 57.1334 109.979 57.2815 104.633C57.2881 104.411 57.2009 104.097 56.9819 104.14C56.8817 104.16 56.8174 104.257 56.7662 104.345C54.8627 107.615 53.9845 111.511 54.3037 115.311C54.4661 117.242 54.9313 119.148 55.6908 120.932C56.1615 122.028 56.6017 123.136 57.1323 124.2Z" fill="white"/>
<path d="M102.562 43.4546C102.303 51.0609 104.969 58.7314 109.891 64.5356C112.979 68.1769 116.921 71.122 119.419 75.1905C122.23 79.771 122.918 85.5969 121.253 90.7081C121.088 84.2524 117.598 77.97 112.204 74.4201C109.275 72.4927 105.849 71.3334 103.167 69.0769C100.271 66.6428 98.4652 63.0679 97.7526 59.3525C97.04 55.6371 97.3582 51.7822 98.1949 48.0929C98.3856 47.2517 98.6112 46.3997 99.0851 45.6806C99.5602 44.9615 100.33 44.3851 101.191 44.3557" fill="black"/>
<path d="M59.5031 83.7892C64.1806 94.6446 76.8076 102.418 88.4268 103.02C95.5787 103.391 103.402 102.071 106.988 95.2144C108.762 91.8204 109.392 87.9536 109.808 84.1466C109.966 82.7018 110.095 81.2538 110.194 79.8036C110.742 71.7538 110.366 63.6028 108.683 55.699C107.848 51.7766 106.689 47.9195 105.167 44.2085C104.614 42.8596 104.15 41.3157 102.942 40.4135C101.702 39.4874 100.226 38.7944 98.9422 37.9097C95.6092 35.615 91.702 34.3991 87.7022 33.9567C85.9491 33.7627 84.1818 33.7137 82.42 33.7758C78.3918 33.9175 74.343 34.6344 70.6733 36.3025C63.3394 39.6366 58.0321 46.6741 55.8683 54.4341C54.4736 59.4341 54.3015 64.7174 55.0326 69.8417C55.7408 74.8134 57.532 79.2174 59.5031 83.7892Z" fill="#F7B385"/>
<path d="M11.0654 19.2269C-19.156 47.4064 24.418 66.1819 3.54953 87.4939C2.55803 89.4856 4.48656 91.2322 6.36389 90.0544C33.8875 75.8529 11.1231 56.8781 26.4675 43.7607C60.3989 28.1799 35.0936 -4.86671 11.0654 19.2269Z" fill="black"/>
<path d="M37.9623 38.5351C37.4491 37.938 36.9348 37.341 36.4238 36.7428C38.3273 33.06 40.2308 29.3784 42.1353 25.6956C42.2683 25.4396 42.4273 25.1596 42.7019 25.0713C42.934 24.9972 43.1824 25.0822 43.4112 25.1672C48.9408 27.2123 54.3897 29.4765 59.7406 31.9509C59.7406 32.3736 58.1978 33.6288 57.8851 33.9687C57.3305 34.5724 56.7704 35.1128 56.2681 35.7654C55.1644 37.1982 54.1413 38.6931 53.1694 40.2174C51.2986 43.1527 49.6229 46.2057 47.9798 49.2717C47.7804 50.5977 45.854 48.5319 45.5348 48.1941C44.4801 47.0773 43.7021 45.6141 42.7684 44.3774C41.2463 42.3671 39.6075 40.4473 37.9623 38.5351Z" fill="#F2594B"/>
<path d="M74.0805 39.0318C73.9846 39.8098 80.8663 42.1763 81.6748 42.4509C84.3083 43.3444 87.0257 43.9883 89.7801 44.374C92.601 44.7695 95.46 44.8948 98.3038 44.7412C100.143 44.642 104.648 44.848 105.687 42.866C106.538 41.2426 103.911 37.6372 103.06 36.3112C100.22 31.8854 96.2173 28.2397 91.6672 25.6291C85.1963 21.918 77.6946 20.2324 70.2387 19.996C65.6146 19.8489 60.4947 21.8984 56.521 24.2126C52.4515 26.5835 48.9398 29.8642 46.2736 33.7453C41.6767 40.4374 39.7732 48.8489 40.6438 56.9204C41.4446 64.3414 44.685 71.6742 50.4107 76.4629C51.8588 77.6745 53.7306 78.7652 55.5437 78.24C57.3011 77.7312 58.3068 75.9018 58.8941 74.1683C59.6197 72.0283 60.3269 70.2981 61.6867 68.4851C63.1859 66.4857 64.4901 64.3894 65.8129 62.2713C68.6229 57.7735 70.8053 52.8835 72.2795 47.7876C73.1108 44.9231 73.7155 41.9922 74.0805 39.0318Z" fill="black"/>
<path d="M59.0489 57.1604C59.9652 54.4005 62.3546 51.6188 65.5231 51.7823C67.128 51.8651 68.7243 52.9394 69.11 54.4996C69.4968 56.0621 68.673 57.6333 68.0542 59.1194C66.4721 62.9231 65.8413 68.0604 67.3547 72.0036C68.7613 75.67 71.9592 79.0062 74.0991 82.3087C76.251 85.6297 78.0706 89.3484 78.1316 93.3046C78.1915 97.2609 76.0886 101.461 72.3765 102.831C73.2514 98.2393 74.1165 93.419 72.7055 88.9627C70.5253 82.0777 63.5412 77.8426 60.1984 71.4403C57.9277 67.0918 57.5028 61.8161 59.0489 57.1604Z" fill="black"/>
<path d="M48.6642 64.36C45.2473 65.5161 42.8666 69.0158 42.713 72.6201C42.5604 76.2233 44.4759 79.7676 47.3785 81.9086C50.2811 84.0496 54.0597 84.8439 57.6422 84.419C59.2308 84.2305 60.9349 83.7195 61.8229 82.3881C62.7556 80.9901 62.505 79.1357 62.1018 77.5035C60.5862 71.3692 57.1051 61.5054 48.6642 64.36Z" fill="#F7B385"/>
<path d="M51.8274 69.5955C54.5241 72.2289 56.0015 76.0642 55.7695 79.8265" stroke="black" stroke-miterlimit="10" stroke-linecap="round" stroke-linejoin="round"/>
<path d="M49.3191 75.3962C51.057 75.7263 52.9103 75.4114 54.4412 74.5234" stroke="black" stroke-miterlimit="10" stroke-linecap="round" stroke-linejoin="round"/>
<path d="M89.8053 63.8275C89.8979 62.6878 90.3239 61.3509 91.4298 61.061C92.1849 60.8638 92.989 61.2681 93.5087 61.851C94.0274 62.4339 94.3292 63.1715 94.667 63.8754C95.6029 65.8246 96.8886 67.605 98.4456 69.1064C99.1429 69.7787 99.9045 70.4085 100.419 71.2289C100.933 72.0493 101.16 73.1346 100.701 73.9877C100.317 74.7014 99.5155 75.123 98.7093 75.208C97.903 75.2919 97.0934 75.0805 96.3405 74.7798C91.6652 72.9101 89.4087 68.712 89.8053 63.8275Z" fill="#E0764C"/>
<path d="M82.0672 59.9673C80.3195 58.6315 77.893 58.2371 75.813 58.9519C73.7331 59.6666 72.0606 61.4699 71.5049 63.5978" stroke="black" stroke-miterlimit="10" stroke-linecap="round" stroke-linejoin="round"/>
<path d="M81.8556 70.2092C82.2555 70.864 82.8983 71.5112 83.6599 71.4219C84.3605 71.3401 84.8366 70.6635 85.0731 69.9989C85.4664 68.893 85.4468 67.6454 85.0197 66.5515C84.5523 65.3573 82.3993 63.3253 81.1877 64.8616C80.1373 66.193 81.0972 68.966 81.8556 70.2092Z" fill="black"/>
<path d="M96.6238 57.5516C97.2862 56.3923 98.0882 55.2842 99.1581 54.4856C100.228 53.6858 101.597 53.2195 102.914 53.4407C104.231 53.6619 105.445 54.6577 105.709 55.9674" stroke="black" stroke-miterlimit="10" stroke-linecap="round" stroke-linejoin="round"/>
<path d="M103.255 65.4358C103.472 65.8259 103.734 66.2007 104.091 66.4698C104.447 66.7389 104.91 66.8915 105.347 66.7999C106.203 66.6201 106.616 65.6439 106.76 64.781C106.927 63.784 106.918 62.7435 106.609 61.7803C106.3 60.8171 105.674 59.9378 104.797 59.4344C101.427 57.4983 102.485 64.052 103.255 65.4358Z" fill="black"/>
<path d="M90.5679 84.1545C87.5008 84.3604 84.3857 83.8548 81.5757 82.6062C82.492 86.6485 85.959 89.8813 89.9643 90.9501C92.856 91.7226 95.9493 91.4284 98.7604 90.3683C96.8798 87.4166 93.9161 85.1732 90.5679 84.1545Z" fill="#F57A6F"/>
<path d="M98.8072 81.6833C96.3012 83.1347 93.4563 83.9594 90.5679 84.1545C93.9161 85.1732 96.8797 87.4177 98.7592 90.3683C99.8412 89.9608 100.885 89.4487 101.854 88.8266C99.8608 87.0255 98.3343 84.3288 98.8072 81.6833Z" fill="black"/>
<path d="M484.694 283.442C478.731 334.825 377.157 377.103 244.503 377.103C111.849 377.103 13.7948 334.292 4.31231 283.442C-7.76556 218.672 111.849 189.782 244.503 189.782C377.157 189.782 492.898 212.747 484.694 283.442Z" fill="#3F7EA6"/>
<path d="M244.503 365.202C377.157 365.202 484.695 323.269 484.695 271.542C484.695 219.815 377.157 177.881 244.503 177.881C111.85 177.881 4.31238 219.815 4.31238 271.542C4.31238 323.269 111.85 365.202 244.503 365.202Z" fill="#6598B8"/>
<path d="M366.536 239.84C387.008 239.84 403.603 231.062 403.603 220.235C403.603 209.408 387.008 200.63 366.536 200.63C346.065 200.63 329.469 209.408 329.469 220.235C329.469 231.062 346.065 239.84 366.536 239.84Z" fill="black"/>
<path d="M334.967 217.76C337.042 215.67 348.139 204.924 365.779 204.831C383.717 204.736 395.036 215.727 397.055 217.76C394.318 215.383 382.852 205.974 365.548 206.143C348.825 206.307 337.792 215.306 334.967 217.76Z" fill="#1A1A1A"/>
<path d="M119.217 240.523C138.922 240.523 154.895 232.074 154.895 221.653C154.895 211.231 138.922 202.782 119.217 202.782C99.5129 202.782 83.5393 211.231 83.5393 221.653C83.5393 232.074 99.5129 240.523 119.217 240.523Z" fill="black"/>
<path d="M88.8313 219.27C90.8296 217.258 101.51 206.916 118.488 206.826C135.755 206.734 146.649 217.314 148.592 219.27C145.957 216.982 134.921 207.925 118.265 208.089C102.171 208.247 91.5509 216.909 88.8313 219.27Z" fill="#1A1A1A"/>
<path d="M428.651 252.328C428.813 252.931 428.937 253.532 428.949 254.107C428.971 255.114 428.788 256.288 428.605 257.286C427.838 261.463 425.034 264.967 421.121 266.624C421.001 266.675 420.878 266.725 420.755 266.772C417.695 267.964 414.368 268.327 411.083 268.349C406.569 268.381 401.918 267.743 398.017 265.47C394.116 263.198 391.099 259.041 391.14 254.527C391.168 251.477 392.504 248.653 393.136 245.706C393.822 242.499 394.12 239.21 394.014 235.933C393.9 232.43 393.351 228.786 394.616 225.517C395.861 222.299 398.77 219.912 402.007 218.715C405.244 217.519 408.79 217.401 412.225 217.724C416.365 218.112 420.782 219.328 423.295 222.641C425.178 225.123 425.341 228.208 425.591 231.207C425.874 234.601 425.943 238.013 426.352 241.396C426.706 244.306 427.309 247.178 427.993 250.027C428.167 250.756 428.441 251.543 428.651 252.328Z" fill="#F2A10A"/>
<path d="M398.367 234.157C398.455 235.839 398.503 237.52 398.367 239.202C398.111 242.368 397.37 245.309 396.519 248.357C395.779 251.008 395.307 253.886 396.248 256.472C397.31 259.388 400.053 261.448 403.007 262.397C405.96 263.347 409.13 263.335 412.229 263.181C415.095 263.038 418.034 262.76 420.607 261.491C423.214 260.205 424.593 257.714 424.788 254.819C424.959 252.282 424.277 249.77 423.526 247.34C422.776 244.911 421.943 242.47 421.799 239.931C421.634 237.006 422.391 234.109 422.545 231.182C422.736 227.53 421.408 221.776 416.676 222.448C415.654 222.593 414.687 222.973 413.757 223.411C412.943 223.795 412.283 223.912 411.399 224.048C409.366 224.357 407.299 223.98 405.341 223.431C404.457 223.182 403.568 222.882 402.648 222.888C399.287 222.911 398.111 225.943 398.126 228.817C398.137 230.596 398.275 232.376 398.367 234.157Z" fill="white"/>
<path d="M404.78 225.126C403.466 224.74 401.916 224.553 400.842 225.403C400.119 225.975 399.775 226.91 399.641 227.822C399.32 230.012 400.025 232.442 401.021 234.375C401.996 236.266 403.291 238.084 405.171 239.161C407.632 240.571 410.788 240.465 413.351 239.254C415.913 238.042 417.913 235.833 419.268 233.342C420.033 231.937 420.619 230.393 420.641 228.794C420.659 227.46 420.245 226.071 419.342 225.069C418.271 223.88 416.861 224.098 415.473 224.574C411.813 225.829 408.5 226.219 404.78 225.126Z" fill="#F2A10A"/>
<path d="M414.809 213.157C414.708 213.213 414.594 213.239 414.476 213.221C415.179 213.129 415.871 213.568 416.261 214.159C416.651 214.75 416.793 215.469 416.877 216.173C416.958 216.84 416.995 217.512 416.989 218.184C416.986 218.467 416.973 218.758 416.848 219.01C416.388 219.937 414.873 220.09 413.987 220.279C412.825 220.525 411.643 220.679 410.457 220.733C408.091 220.842 405.703 220.553 403.451 219.813C403.018 219.671 402.567 219.497 402.284 219.14C402.02 218.808 401.939 218.359 401.977 217.937C402.068 216.9 402.452 215.792 402.872 214.844C403.214 214.075 403.444 213.16 404.497 213.147C404.061 212.865 404.167 212.143 404.565 211.812C404.964 211.479 405.52 211.43 406.037 211.394C408.546 211.221 411.076 211.048 413.566 211.391C413.926 211.44 414.293 211.504 414.607 211.686C414.921 211.868 415.173 212.196 415.17 212.559C415.168 212.802 415.017 213.042 414.809 213.157Z" fill="white"/>
<path d="M414.652 213.169C411.344 214.151 407.772 214.093 404.461 213.125C407.794 213.82 411.251 212.992 414.652 213.169Z" fill="#B3B3B3"/>
<path d="M411.976 211.877C412.024 211.863 412.078 211.844 412.099 211.802C412.123 211.753 412.089 211.693 412.039 211.664C411.989 211.636 411.928 211.633 411.869 211.63C410.637 211.568 409.401 211.601 408.168 211.635C407.916 211.642 407.664 211.649 407.415 211.675C407.306 211.686 407.175 211.72 407.151 211.818C407.135 211.882 407.177 211.95 407.236 211.988C407.295 212.026 407.367 212.041 407.438 212.055C408.576 212.268 409.81 212.274 410.956 212.099C411.3 212.047 411.641 211.973 411.976 211.877Z" fill="#B3B3B3"/>
<path d="M367.443 307.733L368.75 278.098H395.945L398.088 306.687L367.443 307.733Z" fill="#E6E6E6"/>
<path d="M366.78 309.563L368.156 279.928H396.784L399.039 308.517L366.78 309.563Z" fill="white"/>
<path d="M403.693 306.408L399.855 286.329C399.486 284.399 397.797 283.002 395.832 283.002H369.291C367.334 283.002 365.651 284.385 365.271 286.305L361.31 306.383C360.81 308.915 362.748 311.273 365.329 311.273H399.669C402.24 311.273 404.175 308.932 403.693 306.408Z" fill="black"/>
<path d="M286.881 217.878L288.189 188.243H315.383L317.526 216.832L286.881 217.878Z" fill="#E6E6E6"/>
<path d="M286.218 219.709L287.594 190.074H316.222L318.477 218.663L286.218 219.709Z" fill="white"/>
<path d="M323.131 216.552L319.294 196.475C318.924 194.544 317.235 193.147 315.27 193.147H288.729C286.772 193.147 285.089 194.531 284.71 196.451L280.748 216.529C280.249 219.061 282.186 221.418 284.767 221.418H319.107C321.679 221.418 323.614 219.078 323.131 216.552Z" fill="black"/>
<path d="M47.2163 273.561L48.5238 243.926H75.7173L77.8604 272.515L47.2163 273.561Z" fill="#E6E6E6"/>
<path d="M46.5518 275.391L47.9279 245.756H76.5563L78.8117 274.345L46.5518 275.391Z" fill="white"/>
<path d="M83.4663 272.235L79.6288 252.156C79.2594 250.225 77.5706 248.829 75.605 248.829H49.0631C47.1063 248.829 45.4229 250.212 45.0437 252.132L41.082 272.21C40.5819 274.742 42.5203 277.1 45.1015 277.1H79.4414C82.0128 277.101 83.9489 274.76 83.4663 272.235Z" fill="black"/>
<path d="M193.379 210.894C193.54 211.497 193.663 212.097 193.676 212.672C193.698 213.68 193.515 214.854 193.332 215.852C192.565 220.029 189.761 223.533 185.849 225.189C185.728 225.24 185.606 225.29 185.483 225.337C182.421 226.529 179.096 226.892 175.811 226.915C171.297 226.947 166.645 226.308 162.744 224.035C158.844 221.763 155.826 217.607 155.867 213.093C155.894 210.043 157.231 207.219 157.862 204.272C158.549 201.065 158.847 197.776 158.74 194.498C158.626 190.995 158.076 187.352 159.342 184.083C160.587 180.865 163.496 178.477 166.733 177.281C169.971 176.085 173.515 175.967 176.951 176.289C181.092 176.677 185.507 177.893 188.021 181.207C189.904 183.689 190.068 186.773 190.317 189.773C190.6 193.167 190.669 196.578 191.079 199.961C191.432 202.872 192.035 205.744 192.72 208.592C192.894 209.322 193.169 210.109 193.379 210.894Z" fill="#F2594B"/>
<path d="M163.095 192.722C163.184 194.404 163.232 196.086 163.095 197.768C162.84 200.933 162.098 203.875 161.247 206.923C160.508 209.574 160.035 212.452 160.976 215.038C162.039 217.954 164.781 220.014 167.735 220.963C170.689 221.913 173.858 221.901 176.957 221.746C179.824 221.604 182.761 221.326 185.336 220.056C187.942 218.771 189.321 216.28 189.516 213.385C189.687 210.847 189.005 208.336 188.255 205.906C187.504 203.476 186.671 201.036 186.528 198.497C186.362 195.572 187.12 192.674 187.273 189.749C187.465 186.097 186.137 180.343 181.405 181.015C180.383 181.16 179.415 181.54 178.486 181.978C177.672 182.362 177.011 182.479 176.128 182.614C174.095 182.924 172.028 182.547 170.07 181.998C169.185 181.749 168.296 181.449 167.376 181.455C164.015 181.478 162.839 184.51 162.855 187.384C162.864 189.163 163.002 190.943 163.095 192.722Z" fill="white"/>
<path d="M169.509 183.692C168.195 183.305 166.644 183.119 165.571 183.969C164.847 184.541 164.503 185.476 164.369 186.388C164.049 188.578 164.754 191.007 165.75 192.94C166.725 194.832 168.019 196.649 169.9 197.727C172.36 199.137 175.517 199.031 178.079 197.819C180.642 196.608 182.641 194.398 183.997 191.907C184.762 190.503 185.348 188.959 185.369 187.36C185.388 186.027 184.974 184.637 184.071 183.634C183 182.446 181.59 182.664 180.202 183.14C176.542 184.396 173.227 184.786 169.509 183.692Z" fill="#F2594B"/>
<path d="M179.537 171.723C179.436 171.779 179.321 171.805 179.204 171.787C179.906 171.695 180.598 172.134 180.988 172.724C181.378 173.316 181.52 174.035 181.604 174.739C181.685 175.406 181.722 176.078 181.715 176.75C181.713 177.033 181.7 177.324 181.575 177.576C181.115 178.502 179.599 178.656 178.713 178.845C177.551 179.091 176.37 179.244 175.183 179.299C172.818 179.408 170.429 179.119 168.177 178.379C167.745 178.237 167.294 178.063 167.01 177.706C166.747 177.374 166.667 176.925 166.704 176.503C166.795 175.466 167.179 174.358 167.6 173.41C167.942 172.641 168.172 171.726 169.224 171.713C168.788 171.431 168.894 170.709 169.293 170.378C169.692 170.046 170.247 169.996 170.765 169.96C173.273 169.787 175.803 169.615 178.294 169.957C178.653 170.006 179.021 170.07 179.334 170.252C179.648 170.435 179.901 170.762 179.898 171.125C179.896 171.368 179.744 171.609 179.537 171.723Z" fill="white"/>
<path d="M179.379 171.736C176.071 172.718 172.499 172.66 169.188 171.691C172.521 172.387 175.978 171.558 179.379 171.736Z" fill="#B3B3B3"/>
<path d="M176.703 170.444C176.751 170.43 176.806 170.411 176.826 170.369C176.85 170.32 176.816 170.26 176.766 170.231C176.716 170.203 176.655 170.2 176.596 170.197C175.364 170.134 174.128 170.168 172.895 170.202C172.643 170.209 172.392 170.216 172.142 170.242C172.033 170.253 171.902 170.287 171.879 170.385C171.862 170.449 171.905 170.517 171.964 170.555C172.022 170.593 172.094 170.608 172.165 170.621C173.304 170.835 174.537 170.84 175.683 170.666C176.028 170.614 176.369 170.54 176.703 170.444Z" fill="#B3B3B3"/>
<path d="M237.04 220.235C256.954 220.235 273.097 211.697 273.097 201.164C273.097 190.632 256.954 182.094 237.04 182.094C217.126 182.094 200.983 190.632 200.983 201.164C200.983 211.697 217.126 220.235 237.04 220.235Z" fill="black"/>
<path d="M206.329 198.756C208.348 196.723 219.142 186.271 236.302 186.18C253.753 186.087 264.763 196.78 266.726 198.756C264.064 196.444 252.91 187.291 236.077 187.455C219.81 187.616 209.078 196.369 206.329 198.756Z" fill="#1A1A1A"/>
<path d="M253.724 187.706C260.393 184.324 265.65 190.05 268.981 195.372C271.057 198.783 274.803 203.131 268.766 204.936C260.216 203.945 217.595 210.06 217.36 202.602C222.323 199.197 229.88 198.718 235.4 195.414C240.849 192.868 247.91 189.763 253.724 187.706Z" fill="#B5852A"/>
<path d="M219.398 200.519C218.588 200.869 217.753 201.241 217.164 201.897C216.574 202.553 216.299 203.577 216.755 204.331C217.372 205.35 218.88 205.326 219.987 204.886C221.094 204.447 222.139 203.713 223.33 203.713C225.235 203.714 226.656 205.57 228.525 205.942C230.848 206.406 232.959 204.5 235.297 204.114C237.556 203.741 239.837 204.821 242.118 204.628C244.815 204.401 247.21 202.425 249.913 202.554C251.362 202.623 252.776 203.304 254.214 203.096C255.376 202.927 256.388 202.195 257.539 201.956C258.698 201.714 259.896 201.99 261.047 202.265C262.392 202.586 263.735 202.907 265.08 203.228C265.846 203.411 266.878 203.545 267.643 203.28C267.968 203.167 268.268 202.915 268.339 202.578C268.393 202.318 268.309 202.053 268.222 201.803C266.618 197.243 263.43 193.425 260.076 189.945C258.958 188.786 257.721 187.599 256.144 187.267C254.996 187.025 253.804 187.271 252.673 187.585C250.671 188.141 248.737 188.908 246.837 189.739C244.963 190.56 243.125 191.26 241.198 191.945C237.225 193.354 233.276 194.836 229.357 196.391C226.018 197.717 222.697 199.092 219.398 200.519Z" fill="#F2A10A"/>
<path d="M254.449 192.087C254.449 193.566 252.101 194.764 249.205 194.764C246.309 194.764 243.961 193.566 243.961 192.087C243.961 190.608 246.309 189.41 249.205 189.41C252.102 189.409 254.449 190.608 254.449 192.087Z" fill="#F2594B"/>
<path d="M253.324 192.087C253.324 193.249 251.48 194.19 249.205 194.19C246.93 194.19 245.086 193.249 245.086 192.087C245.086 190.926 246.931 189.984 249.205 189.984C251.481 189.983 253.324 190.926 253.324 192.087Z" fill="#F57A6F"/>
<path d="M233.775 201.817C236.802 201.817 239.255 200.564 239.255 199.019C239.255 197.473 236.802 196.221 233.775 196.221C230.749 196.221 228.296 197.473 228.296 199.019C228.296 200.564 230.749 201.817 233.775 201.817Z" fill="#F2594B"/>
<path d="M233.775 201.217C236.152 201.217 238.079 200.233 238.079 199.019C238.079 197.805 236.152 196.821 233.775 196.821C231.399 196.821 229.472 197.805 229.472 199.019C229.472 200.233 231.399 201.217 233.775 201.217Z" fill="#F57A6F"/>
<path d="M251.08 201.648C254.106 201.648 256.559 200.395 256.559 198.85C256.559 197.305 254.106 196.052 251.08 196.052C248.054 196.052 245.601 197.305 245.601 198.85C245.601 200.395 248.054 201.648 251.08 201.648Z" fill="#F2594B"/>
<path d="M255.384 198.85C255.384 200.064 253.456 201.048 251.08 201.048C248.704 201.048 246.776 200.064 246.776 198.85C246.776 197.636 248.704 196.652 251.08 196.652C253.458 196.652 255.384 197.636 255.384 198.85Z" fill="#F57A6F"/>
<path d="M240.67 196.476C240.638 196.74 240.66 197.072 240.904 197.177C241.104 197.263 241.329 197.135 241.498 196.998C241.989 196.603 242.386 196.064 242.514 195.447C242.624 194.915 242.464 193.656 241.633 194.098C240.975 194.449 240.752 195.816 240.67 196.476Z" fill="#B5852A"/>
<path d="M258.387 195.14C258.542 195.242 258.731 195.336 258.907 195.28C259.089 195.221 259.19 195.014 259.185 194.823C259.181 194.633 259.095 194.454 259.008 194.284C258.763 193.807 257.699 192.032 257.072 193.003C256.57 193.777 257.833 194.78 258.387 195.14Z" fill="#B5852A"/>
<path d="M260.802 199.305C260.743 199.641 260.887 200.022 261.19 200.181C261.556 200.373 262.01 200.2 262.347 199.959C262.68 199.722 262.966 199.418 263.184 199.07C263.636 198.348 263.035 197.879 262.297 198.032C261.694 198.157 260.913 198.664 260.802 199.305Z" fill="#B5852A"/>
<path d="M241.148 202.104C241.18 202.352 241.237 202.609 241.398 202.802C241.559 202.994 241.85 203.097 242.069 202.974C242.284 202.853 242.349 202.58 242.393 202.337C242.479 201.862 242.564 201.381 242.539 200.9C242.528 200.696 242.49 200.477 242.341 200.336C241.983 199.996 241.497 200.162 241.323 200.552C241.11 201.034 241.083 201.587 241.148 202.104Z" fill="#B5852A"/>
<path d="M226.806 202.204C226.904 202.228 227.018 202.246 227.1 202.187C227.244 202.084 227.171 201.857 227.082 201.704C226.764 201.161 226.387 200.631 225.855 200.296C225.494 200.068 224.915 199.868 224.489 200.025C224.001 200.204 224.133 200.569 224.421 200.864C225.065 201.517 225.917 201.987 226.806 202.204Z" fill="#B5852A"/>
<path d="M235.483 327.854C295.14 327.854 343.501 305.306 343.501 277.492C343.501 249.678 295.14 227.13 235.483 227.13C175.826 227.13 127.465 249.678 127.465 277.492C127.465 305.306 175.826 327.854 235.483 327.854Z" fill="black"/>
<path d="M140.227 268.475C150.763 260.506 185.968 235.955 237.079 236.571C286.328 237.164 320.041 260.757 330.74 268.931C316.667 260.343 283.145 242.48 236.851 242.041C189.037 241.586 154.312 259.973 140.227 268.475Z" fill="#1A1A1A"/>
<path d="M235.483 236.664C234.071 236.664 232.67 236.681 231.276 236.713C229.569 236.751 228.305 238.314 228.628 239.992L235.451 275.358C235.467 275.436 235.398 275.503 235.321 275.488L154.701 259.682C153.822 259.51 152.899 259.765 152.262 260.394C147.273 265.327 144.494 270.783 144.494 276.525C144.494 298.54 185.231 316.387 235.483 316.387C285.735 316.387 326.472 298.54 326.472 276.525C326.473 254.511 285.735 236.664 235.483 236.664Z" fill="#B5852A"/>
<path d="M149.877 280.668C151.844 288.016 157.684 293.854 164.385 297.455C171.086 301.056 178.639 302.705 186.111 304.13C216.544 309.93 248.051 312.65 278.441 306.629C292.533 303.838 307.183 298.523 315.563 286.854C318.78 282.375 320.943 276.833 320.123 271.379C318.9 263.25 311.584 257.489 304.283 253.71C289.509 246.063 272.898 243.088 256.459 241.783C251.427 241.383 246.382 241.136 241.337 240.954C238.822 240.864 236.307 240.79 233.791 240.722C231.761 240.668 229.232 240.118 228.214 242.414C227.879 243.171 227.806 244.015 227.737 244.841C227.472 248.053 227.25 251.479 228.807 254.301C229.701 255.919 231.154 257.278 231.547 259.084C232.003 261.174 230.915 263.346 231.238 265.461C231.49 267.114 232.56 268.504 233.485 269.896C234.41 271.289 235.251 272.913 234.959 274.56C234.561 274.352 229.696 272.602 229.696 273.001C227.792 272.656 226.013 271.789 224.047 271.968C222.573 272.102 221.106 272.499 219.634 272.346C216.932 272.065 214.77 270.017 212.218 269.087C207.843 267.491 202.945 269.334 198.342 268.626C193.392 267.865 189.268 264.245 184.345 263.321C179.483 262.408 174.369 264.225 169.564 263.045C167.342 262.499 165.326 261.341 163.192 260.514C160.814 259.592 157.777 258.995 155.527 260.566C153.912 261.694 153.008 263.932 152.121 265.65C149.675 270.391 148.463 275.39 149.877 280.668Z" fill="#F2A10A"/>
<path d="M242.774 252.746C246.801 252.746 250.065 251.079 250.065 249.023C250.065 246.966 246.801 245.3 242.774 245.3C238.747 245.3 235.483 246.966 235.483 249.023C235.483 251.079 238.747 252.746 242.774 252.746Z" fill="#F2594B"/>
<path d="M248.502 249.023C248.502 250.637 245.937 251.947 242.774 251.947C239.611 251.947 237.046 250.637 237.046 249.023C237.046 247.408 239.611 246.098 242.774 246.098C245.937 246.098 248.502 247.407 248.502 249.023Z" fill="#F57A6F"/>
<path d="M270.119 256.201C270.119 258.257 266.855 259.924 262.828 259.924C258.801 259.924 255.536 258.257 255.536 256.201C255.536 254.145 258.801 252.478 262.828 252.478C266.855 252.478 270.119 254.145 270.119 256.201Z" fill="#F2594B"/>
<path d="M262.829 259.125C265.992 259.125 268.557 257.816 268.557 256.201C268.557 254.585 265.992 253.276 262.829 253.276C259.665 253.276 257.101 254.585 257.101 256.201C257.101 257.816 259.665 259.125 262.829 259.125Z" fill="#F57A6F"/>
<path d="M252.914 267.652C252.914 269.708 249.649 271.375 245.622 271.375C241.595 271.375 238.331 269.708 238.331 267.652C238.331 265.596 241.595 263.929 245.622 263.929C249.649 263.929 252.914 265.596 252.914 267.652Z" fill="#F2594B"/>
<path d="M251.35 267.652C251.35 269.267 248.785 270.576 245.622 270.576C242.459 270.576 239.895 269.267 239.895 267.652C239.895 266.037 242.459 264.728 245.622 264.728C248.787 264.728 251.35 266.037 251.35 267.652Z" fill="#F57A6F"/>
<path d="M288.191 259.393C292.218 259.393 295.482 257.726 295.482 255.67C295.482 253.614 292.218 251.947 288.191 251.947C284.164 251.947 280.899 253.614 280.899 255.67C280.899 257.726 284.164 259.393 288.191 259.393Z" fill="#F2594B"/>
<path d="M288.191 258.594C291.354 258.594 293.919 257.285 293.919 255.67C293.919 254.055 291.354 252.746 288.191 252.746C285.027 252.746 282.463 254.055 282.463 255.67C282.463 257.285 285.027 258.594 288.191 258.594Z" fill="#F57A6F"/>
<path d="M270.119 276.302C274.146 276.302 277.411 274.635 277.411 272.579C277.411 270.523 274.146 268.856 270.119 268.856C266.092 268.856 262.828 270.523 262.828 272.579C262.828 274.635 266.092 276.302 270.119 276.302Z" fill="#F2594B"/>
<path d="M270.119 275.503C273.283 275.503 275.847 274.194 275.847 272.579C275.847 270.964 273.283 269.655 270.119 269.655C266.956 269.655 264.391 270.964 264.391 272.579C264.391 274.194 266.956 275.503 270.119 275.503Z" fill="#F57A6F"/>
<path d="M259.331 293.089C259.331 295.145 256.067 296.812 252.04 296.812C248.013 296.812 244.749 295.145 244.749 293.089C244.749 291.033 248.013 289.366 252.04 289.366C256.067 289.366 259.331 291.033 259.331 293.089Z" fill="#F2594B"/>
<path d="M257.768 293.089C257.768 294.704 255.204 296.014 252.04 296.014C248.877 296.014 246.312 294.704 246.312 293.089C246.312 291.474 248.877 290.165 252.04 290.165C255.204 290.165 257.768 291.473 257.768 293.089Z" fill="#F57A6F"/>
<path d="M297.046 289.366C297.046 291.422 293.781 293.089 289.754 293.089C285.727 293.089 282.463 291.422 282.463 289.366C282.463 287.31 285.727 285.643 289.754 285.643C293.781 285.643 297.046 287.31 297.046 289.366Z" fill="#F2594B"/>
<path d="M295.482 289.366C295.482 290.981 292.919 292.29 289.754 292.29C286.591 292.29 284.027 290.981 284.027 289.366C284.027 287.751 286.591 286.442 289.754 286.442C292.918 286.442 295.482 287.75 295.482 289.366Z" fill="#F57A6F"/>
<path d="M221.644 283.646C221.644 285.702 218.38 287.369 214.353 287.369C210.326 287.369 207.061 285.702 207.061 283.646C207.061 281.59 210.326 279.923 214.353 279.923C218.38 279.923 221.644 281.59 221.644 283.646Z" fill="#F2594B"/>
<path d="M220.081 283.646C220.081 285.261 217.516 286.57 214.353 286.57C211.19 286.57 208.625 285.261 208.625 283.646C208.625 282.031 211.19 280.721 214.353 280.721C217.517 280.72 220.081 282.03 220.081 283.646Z" fill="#F57A6F"/>
<path d="M176.828 277.101C180.855 277.101 184.119 275.434 184.119 273.378C184.119 271.322 180.855 269.655 176.828 269.655C172.801 269.655 169.537 271.322 169.537 273.378C169.537 275.434 172.801 277.101 176.828 277.101Z" fill="#F2594B"/>
<path d="M182.556 273.378C182.556 274.993 179.991 276.302 176.828 276.302C173.665 276.302 171.1 274.993 171.1 273.378C171.1 271.763 173.665 270.453 176.828 270.453C179.992 270.453 182.556 271.763 182.556 273.378Z" fill="#F57A6F"/>
<path d="M189.847 290.165C189.847 292.221 186.583 293.888 182.556 293.888C178.529 293.888 175.265 292.221 175.265 290.165C175.265 288.109 178.529 286.442 182.556 286.442C186.583 286.442 189.847 288.108 189.847 290.165Z" fill="#F2594B"/>
<path d="M188.284 290.165C188.284 291.779 185.719 293.089 182.556 293.089C179.393 293.089 176.828 291.779 176.828 290.165C176.828 288.55 179.393 287.24 182.556 287.24C185.719 287.239 188.284 288.549 188.284 290.165Z" fill="#F57A6F"/>
<path d="M225.399 301.333C229.426 301.333 232.69 299.666 232.69 297.61C232.69 295.554 229.426 293.887 225.399 293.887C221.372 293.887 218.108 295.554 218.108 297.61C218.108 299.666 221.372 301.333 225.399 301.333Z" fill="#F2594B"/>
<path d="M231.126 297.61C231.126 299.224 228.561 300.534 225.398 300.534C222.235 300.534 219.67 299.224 219.67 297.61C219.67 295.995 222.235 294.685 225.398 294.685C228.562 294.685 231.126 295.995 231.126 297.61Z" fill="#F57A6F"/>
<path d="M306.222 275.098C310.249 275.098 313.513 273.431 313.513 271.375C313.513 269.319 310.249 267.652 306.222 267.652C302.195 267.652 298.931 269.319 298.931 271.375C298.931 273.431 302.195 275.098 306.222 275.098Z" fill="#F2594B"/>
<path d="M306.222 274.299C309.386 274.299 311.95 272.99 311.95 271.375C311.95 269.76 309.386 268.45 306.222 268.45C303.059 268.45 300.494 269.76 300.494 271.375C300.494 272.99 303.059 274.299 306.222 274.299Z" fill="#F57A6F"/>
<path d="M246.313 284.938C250.34 284.938 253.605 283.271 253.605 281.215C253.605 279.159 250.34 277.492 246.313 277.492C242.286 277.492 239.022 279.159 239.022 281.215C239.022 283.271 242.286 284.938 246.313 284.938Z" fill="#F2594B"/>
<path d="M252.041 281.215C252.041 282.83 249.476 284.139 246.313 284.139C243.15 284.139 240.585 282.83 240.585 281.215C240.585 279.6 243.15 278.291 246.313 278.291C249.476 278.291 252.041 279.599 252.041 281.215Z" fill="#F57A6F"/>
<path d="M286.395 272.128C287.113 273.527 287.83 274.926 288.548 276.326C288.617 276.46 288.698 276.605 288.838 276.66C289.062 276.745 289.29 276.558 289.453 276.382C290.883 274.825 291.867 272.861 292.259 270.784C292.712 268.385 290.025 268.619 288.373 268.676C286.448 268.745 285.52 270.422 286.395 272.128Z" fill="#B5852A"/>
<path d="M268.743 287C268.937 287.104 269.164 287.207 269.372 287.132C269.505 287.084 269.603 286.97 269.688 286.856C270.798 285.367 270.561 282.782 268.89 281.772C266.985 280.621 265.856 282.689 266.29 284.345C266.617 285.595 267.653 286.411 268.743 287Z" fill="#B5852A"/>
<path d="M228.738 284.156C228.531 284.621 228.367 285.151 228.531 285.633C228.742 286.253 229.411 286.577 230.029 286.794C231.374 287.263 232.79 287.532 234.212 287.59C234.442 287.599 234.683 287.601 234.891 287.501C235.459 287.228 235.455 286.419 235.291 285.81C234.858 284.186 233.911 282.706 232.618 281.631C232.372 281.427 232.104 281.232 231.794 281.152C230.396 280.792 229.178 283.167 228.738 284.156Z" fill="#B5852A"/>
<path d="M241.642 298.305C240.916 298.07 240.033 297.946 239.462 298.454C239.015 298.851 238.917 299.547 239.13 300.106C239.342 300.665 239.817 301.091 240.347 301.368C240.876 301.644 241.463 301.788 242.043 301.931C242.697 302.091 243.351 302.25 244.004 302.41C244.22 302.463 244.448 302.516 244.66 302.454C245.082 302.332 245.26 301.824 245.266 301.385C245.302 299.028 243.346 298.857 241.642 298.305Z" fill="#B5852A"/>
<path d="M193.212 277.188C193.594 278.393 194.323 279.455 195.071 280.474C195.267 280.742 195.472 281.016 195.753 281.192C196.034 281.369 196.413 281.431 196.697 281.259C197.01 281.069 197.117 280.672 197.175 280.31C197.466 278.501 197.225 276.611 196.488 274.933C196.045 273.924 194.761 272.404 193.545 273.414C192.635 274.171 192.911 276.24 193.212 277.188Z" fill="#B5852A"/>
<path d="M165.319 284.172C165.955 284.607 166.821 284.397 167.529 284.09C168.508 283.667 169.419 283.087 170.218 282.38C171.431 281.305 167.571 280.666 166.767 280.791C165.413 281.002 163.779 283.122 165.319 284.172Z" fill="#B5852A"/>
<path d="M203.404 298.851C204.126 298.746 204.723 298.214 205.121 297.603C205.621 296.834 206.634 293.66 204.794 293.877C203.402 294.041 202.108 295.855 201.806 297.102C201.559 298.123 202.325 299.006 203.404 298.851Z" fill="#B5852A"/>
<path d="M272.641 295.421C272.394 295.517 272.15 295.637 271.965 295.826C271.781 296.016 271.662 296.286 271.709 296.547C271.763 296.851 272.021 297.074 272.274 297.249C273.034 297.773 273.924 298.108 274.84 298.215C275.447 298.286 276.151 298.216 276.525 297.732C277.067 297.029 276.608 295.746 275.875 295.337C274.987 294.84 273.527 295.077 272.641 295.421Z" fill="#B5852A"/>
<path d="M274.378 250.809C274.792 251.203 275.332 251.544 275.9 251.473C276.624 251.383 277.113 250.643 277.212 249.921C277.358 248.857 276.864 247.78 276.113 247.013C275.356 246.239 273.533 245.523 272.926 246.871C272.358 248.129 273.509 249.979 274.378 250.809Z" fill="#B5852A"/>
<path d="M250.997 261.12C251.311 259.777 251.221 258.342 250.74 257.047C250.62 256.724 250.468 256.397 250.201 256.178C249.139 255.306 246.845 256.551 247.416 257.952C247.707 258.664 248.398 259.338 248.965 259.837C249.119 259.972 250.98 261.193 250.997 261.12Z" fill="#B5852A"/>
<path d="M273.853 263.135C273.681 263.328 273.514 263.58 273.592 263.827C273.67 264.073 273.952 264.183 274.203 264.244C275.322 264.517 276.52 264.465 277.611 264.093C278.171 263.901 278.765 263.55 278.876 262.968C279.073 261.93 277.746 261.234 276.879 261.408C275.776 261.629 274.596 262.302 273.853 263.135Z" fill="#B5852A"/>
<path d="M302.13 260.665C301.873 261.199 301.829 261.917 302.268 262.314C302.589 262.606 303.063 262.636 303.497 262.646C304.164 262.66 304.831 262.663 305.499 262.653C305.827 262.649 306.181 262.631 306.437 262.427C306.73 262.192 306.807 261.776 306.779 261.402C306.579 258.778 303.211 258.419 302.13 260.665Z" fill="#B5852A"/>
<path d="M303.91 285.26C304.124 285.92 304.477 286.648 305.149 286.82C305.859 287.002 306.554 286.464 306.99 285.874C308.051 284.438 308.993 280.402 306.279 280.096C305.439 280.001 303.826 280.516 303.4 281.295C302.867 282.264 303.597 284.291 303.91 285.26Z" fill="#B5852A"/>
<path d="M259.287 244.629C260.347 243.336 261.452 242.008 262.942 241.25C262.125 241.665 261.148 243.953 260.614 244.731C259.799 245.919 258.968 247.097 258.125 248.265C256.411 250.637 254.637 252.967 252.808 255.252C249.149 259.821 245.264 264.209 241.173 268.395C238.943 270.675 236.677 272.956 234.283 275.062C240.916 267.447 247.141 259.434 253.547 251.627C255.46 249.294 257.373 246.961 259.287 244.629Z" fill="#B5852A"/>
<path d="M249.964 310.986C250.232 311.554 250.5 312.123 250.766 312.69C249.997 310.071 249.177 307.466 248.305 304.879C246.41 299.255 244.275 293.711 241.907 288.27C240.723 285.549 239.481 282.854 238.182 280.185C237.532 278.852 236.871 277.522 236.19 276.204C235.727 275.307 234.579 274.417 234.317 273.46C234.828 275.332 235.393 277.189 235.998 279.031C239.634 290.087 244.992 300.472 249.964 310.986Z" fill="#B5852A"/>
<path d="M234.753 274.3C234.573 274.685 234.369 275.054 234.202 275.446C233.499 277.087 231.509 278.364 230.196 279.548C228.566 281.019 226.919 282.472 225.255 283.906C221.928 286.774 218.536 289.567 215.083 292.281C211.63 294.995 208.115 297.632 204.542 300.188C202.757 301.466 200.956 302.723 199.14 303.96C198.233 304.579 197.322 305.192 196.408 305.8C195.564 306.361 194.514 306.859 193.764 307.537C195.367 306.088 196.906 304.475 198.648 303.213C200.415 301.934 202.175 300.643 203.925 299.34C208.914 295.622 213.83 291.806 218.669 287.895C224.129 283.48 229.305 278.717 234.753 274.3Z" fill="#B5852A"/>
<path d="M284.318 281.305C295.468 282.691 306.696 284.08 317.909 283.377C305.196 281.815 292.482 280.254 279.769 278.693C273.885 277.97 267.999 277.247 262.1 276.646C255.993 276.025 249.874 275.534 243.755 275.044C242.083 274.91 240.413 274.776 238.742 274.642C237.478 274.54 235.758 274.108 234.557 274.395C235.819 276.151 240.277 275.829 242.201 276.069C245.582 276.489 248.962 276.909 252.343 277.329C259.151 278.176 265.959 279.023 272.768 279.868C276.618 280.348 280.469 280.827 284.318 281.305Z" fill="#B5852A"/>
<path d="M303.07 251.947C294.329 255.733 285.448 259.194 276.452 262.321C267.455 265.448 258.342 268.241 249.137 270.693C244.24 271.997 239.058 272.812 234.258 274.369C235.951 274.38 237.587 273.5 239.135 272.914C241.419 272.052 243.707 271.199 245.999 270.358C250.541 268.692 255.098 267.07 259.67 265.491C268.902 262.303 278.195 259.294 287.544 256.465C290.146 255.677 292.751 254.905 295.361 254.146C297.853 253.42 300.695 252.976 303.07 251.947Z" fill="#B5852A"/>
<path d="M235.446 273.727C207.542 281.928 178.316 285.616 149.25 284.605C149.505 284.614 150.919 283.511 151.591 283.442C152.827 283.317 154.246 283.454 155.518 283.399C158.363 283.276 161.207 283.128 164.049 282.958C169.857 282.612 175.659 282.167 181.452 281.627C193.039 280.545 204.589 279.077 216.078 277.225C222.555 276.181 229.013 275.014 235.446 273.727Z" fill="#B5852A"/>
<path d="M214.258 258.815C215.966 269.727 233.231 269.495 235.348 258.83C237.091 241.503 215.225 241.961 214.258 258.815Z" fill="#B3B3B3"/>
<path d="M220.134 256.683C220.14 258.62 221.373 260.519 223.17 261.244C224.965 261.97 227.215 261.433 228.434 259.927C229.039 259.181 229.386 258.247 229.516 257.296C229.754 255.56 229.233 253.681 227.952 252.487C224.778 249.528 220.122 252.87 220.134 256.683Z" fill="#666666"/>
<path d="M211.586 253.752C201.69 250.496 191.98 246.673 182.521 242.309C181.846 241.997 181.142 241.658 180.709 241.054C179.726 239.686 180.974 238.812 182.24 238.619C183.041 238.497 183.856 238.659 184.643 238.852C186.904 239.411 189.087 240.25 191.262 241.086C202.072 245.242 212.882 249.397 223.693 253.554C223.693 253.841 224.641 254.134 224.861 254.225C225.368 254.437 225.803 254.534 226.076 255.079C226.374 255.678 226.237 256.462 225.754 256.923C224.971 257.671 223.707 257.432 222.664 257.138C218.948 256.087 215.255 254.958 211.586 253.752Z" fill="#808080"/>
<path d="M10.101 186.777C9.41133 190.808 9.14874 194.887 10.0836 198.837C11.8389 206.252 18.1508 210.312 25.1055 212.205C33.3862 214.461 42.1997 214.823 50.7343 214.428C53.8156 214.567 86.8884 216.398 86.9995 215.655C87.5694 211.86 88.1403 208.065 88.7102 204.27C71.2607 199.154 52.0244 194.192 34.3766 189.104C43.9071 172.168 56.0688 151.521 47.4504 132.176C45.2483 127.7 38.9463 123.659 34.248 127.141C32.8904 128.148 31.9055 129.568 30.9815 130.983C21.0675 146.169 15.3157 163.703 11.2233 181.37C10.8092 183.153 10.4116 184.961 10.101 186.777Z" fill="#F7B385"/>
<path d="M24.3906 194.809C24.1792 194.992 23.9635 195.185 23.8392 195.437C23.715 195.688 23.7009 196.014 23.8774 196.231C24.2053 196.635 24.8525 196.407 25.3004 196.143C26.9336 195.179 28.507 194.113 30.0095 192.956C30.7689 192.371 31.5109 191.762 32.2333 191.131C32.7944 190.641 33.7827 189.998 34.0954 189.333C33.5201 189.056 32.5939 189.636 32.0807 189.87C31.1535 190.294 30.247 190.761 29.3645 191.27C27.6004 192.29 25.9312 193.476 24.3906 194.809Z" fill="#E0764C"/>
<path d="M17.6571 198.361C18.0941 200.346 17.5885 202.519 16.3213 204.108C16.6896 203.648 16.3911 201.925 16.329 201.374C16.2222 200.429 16.0054 199.495 15.6872 198.6C15.0335 196.759 13.957 195.287 12.6571 193.865C13.9373 194.034 14.6336 193.881 15.6523 194.846C16.6438 195.788 17.363 197.023 17.6571 198.361Z" fill="#E0764C"/>
<path d="M108.203 205.931C108.421 205.921 108.791 206.15 109.022 206.198C109.329 206.263 109.645 206.254 109.95 206.317C110.531 206.437 111.124 206.558 111.709 206.684C113.034 206.971 114.335 207.372 115.589 207.888C116.483 208.257 117.645 208.662 117.938 209.696C118.195 210.605 117.643 211.86 116.744 212.168C117.986 212.434 118.975 213.637 118.829 214.933C118.685 216.215 117.414 217.262 116.129 217.155C117.04 217.232 117.653 218.291 117.45 219.182C117.246 220.073 116.42 220.723 115.533 220.946C114.646 221.168 113.709 221.028 112.824 220.806C113.798 221.079 113.786 222.626 112.997 223.26C112.208 223.894 111.094 223.868 110.085 223.799C101.642 223.232 93.2059 221.91 85.1986 219.171C83.8606 218.713 82.4573 218.157 81.6325 217.01C80.7979 215.85 80.7249 214.311 80.848 212.887C81.0768 210.228 81.9811 207.708 83.245 205.371C83.7245 204.486 84.2376 203.077 85.1834 202.635C86.5955 201.976 88.0272 201.357 89.448 200.719C91.4615 199.813 93.5698 198.89 95.7751 198.992C97.9924 199.094 100.01 200.219 102.047 201.1C103.998 201.945 106.039 202.584 108.124 203.004C108.646 203.108 109.187 203.206 109.635 203.493C110.084 203.78 110.424 204.311 110.314 204.832C110.225 205.25 109.865 205.571 109.468 205.728C109.067 205.888 108.63 205.911 108.203 205.931Z" fill="#F7B385"/>
<path d="M98.8552 217.969C99.3967 217.517 100.206 217.73 100.874 217.959C104.872 219.323 108.925 220.143 113.036 221.048C108.296 220.952 103.289 219.576 98.8552 217.969Z" fill="#E0764C"/>
<path d="M100.617 213.407C100.715 213.109 101.03 212.925 101.342 212.886C101.653 212.848 101.966 212.93 102.27 213.011C104.626 213.635 106.973 214.291 109.312 214.974C111.566 215.632 114.119 216.118 116.245 217.107C115.507 217.554 113.571 216.795 112.77 216.626C111.418 216.339 110.071 216.03 108.729 215.7C106.001 215.025 103.295 214.26 100.617 213.407Z" fill="#E0764C"/>
<path d="M104.124 209.803C103.866 209.737 103.598 209.668 103.393 209.497C103.188 209.326 103.069 209.022 103.191 208.784C103.379 208.418 103.914 208.482 104.309 208.602C108.518 209.874 112.747 211.093 116.94 212.419C112.625 212.125 108.3 210.855 104.124 209.803Z" fill="#E0764C"/>
<path d="M96.6609 203.454C100.483 203.283 104.013 204.592 107.572 205.788C106.867 205.404 105.89 205.308 105.113 205.122C104.182 204.899 103.247 204.688 102.311 204.49C101.374 204.292 100.435 204.107 99.4938 203.934C98.6178 203.773 97.5489 203.414 96.6609 203.454Z" fill="#E0764C"/>
<path d="M418.384 288.213C415.027 292.555 413.309 298.136 413.644 303.615C413.668 304.009 413.707 304.419 413.916 304.754C414.264 305.312 415.015 305.515 415.657 305.374C416.299 305.235 416.845 304.816 417.315 304.359C419.632 302.107 420.611 298.726 423.005 296.555C423.323 296.266 423.796 295.992 424.154 296.232C424.555 296.5 424.402 297.116 424.196 297.553C422.29 301.587 419.58 305.238 416.27 308.229C415.526 308.9 414.732 309.566 414.296 310.467C413.86 311.368 413.896 312.59 414.669 313.227C415.779 314.141 417.422 313.323 418.602 312.501C417.553 313.963 416.449 315.697 416.917 317.436C417.01 317.783 417.169 318.12 417.42 318.378C418.038 319.017 419.09 319.045 419.902 318.685C420.714 318.326 421.341 317.658 421.945 317.006C421.642 317.76 421.334 318.535 421.319 319.347C421.303 320.16 421.643 321.03 422.357 321.418C422.917 321.723 423.601 321.685 424.226 321.551C426.058 321.158 427.641 320.046 429.168 318.961C428.301 319.758 429.014 321.367 430.142 321.705C431.27 322.042 432.468 321.521 433.478 320.916C437.433 318.545 440.382 314.735 442.344 310.562C444.306 306.389 445.349 301.846 446.133 297.303C446.56 294.839 446.915 292.363 447.16 289.874C447.36 287.833 448.173 286.305 446.787 284.398C445.945 283.239 444.702 282.437 443.436 281.763C441.007 280.47 438.357 279.541 435.616 279.307C431.894 278.991 429.071 280.274 425.895 281.941C422.986 283.467 420.396 285.612 418.384 288.213Z" fill="#A1633A"/>
<path d="M418.42 312.66C422.699 309.704 425.878 305.193 427.223 300.169C427.285 299.935 427.35 299.69 427.516 299.512C427.682 299.336 427.984 299.262 428.166 299.422C428.342 299.577 428.322 299.851 428.283 300.082C427.469 304.851 424.489 309.206 420.34 311.693C419.326 312.301 418.212 312.83 417.49 313.766" fill="#753C17"/>
<path d="M437.149 304.873C437.202 304.657 437.254 304.437 437.374 304.25C437.494 304.062 437.696 303.913 437.918 303.919C438.256 303.927 438.483 304.276 438.558 304.605C438.699 305.239 438.495 305.895 438.274 306.506C436.826 310.495 434.48 314.153 431.478 317.15C430.653 317.973 429.755 318.905 428.766 319.524C428.738 319.08 429.321 318.669 429.596 318.389C429.982 317.996 430.357 317.592 430.72 317.178C431.463 316.329 432.158 315.436 432.799 314.508C434.082 312.65 435.15 310.647 435.977 308.546C436.448 307.35 436.84 306.122 437.149 304.873Z" fill="#753C17"/>
<path d="M429.909 305.863C430.339 304.689 430.695 303.463 431.412 302.439C431.612 302.154 431.918 301.859 432.254 301.945C432.676 302.052 432.733 302.626 432.665 303.057C432.354 305.025 431.335 306.808 430.217 308.457C428.191 311.446 425.775 314.168 423.049 316.534C422.918 316.649 422.227 317.38 422.076 317.337C421.712 317.235 422.275 316.779 422.357 316.708C423.001 316.159 423.616 315.577 424.204 314.967C425.377 313.746 426.432 312.413 427.35 310.991C428.387 309.383 429.25 307.661 429.909 305.863Z" fill="#753C17"/>
<path d="M470.97 214.924C470.44 221.853 469.618 228.753 468.38 235.595C466.684 244.969 464.193 254.22 460.673 263.079C458.888 267.571 456.84 271.96 454.499 276.191C452.769 279.319 450.791 284.211 447.464 285.94C444.274 287.599 440.424 286.107 437.153 284.615C435.238 283.74 433.127 282.653 432.49 280.647C431.998 279.1 432.537 277.435 433.063 275.9C440.177 255.15 445.836 233.593 445.838 211.658C445.839 200.834 444.464 190.084 443.714 179.301C443.051 169.783 441.472 157.916 446.084 149.188C448.109 145.357 451.738 143.454 455.194 141.044C455.997 140.484 456.866 139.901 457.845 139.885C459.263 139.861 460.41 141.018 461.204 142.194C465.521 148.58 468.548 154.557 470.127 162.205C471.542 169.066 471.725 176.114 471.798 183.119C471.907 193.72 471.779 204.356 470.97 214.924Z" fill="#8CC63F"/>
<path d="M433.883 267.376C434.25 267.122 434.648 266.922 435.087 266.802C436.45 266.431 437.89 266.91 439.199 267.44C444.324 269.509 449.103 272.432 453.278 276.053C453.861 276.558 454.447 277.097 454.782 277.792C455.757 279.814 454.4 282.644 453.515 284.489C452.458 286.692 450.984 288.66 449.523 290.607C449.153 291.101 448.731 291.628 448.127 291.758C447.28 291.94 446.514 291.272 445.871 290.69C441.427 286.664 435.608 284.574 429.953 282.579C428.919 282.214 427.733 281.684 427.508 280.61C427.394 280.065 427.569 279.503 427.749 278.975C428.809 275.858 430.045 272.685 431.753 269.861C432.318 268.927 433.003 267.99 433.883 267.376Z" fill="#A3D165"/>
<path d="M461.418 227.072C460.718 228.851 460.671 230.879 461.288 232.688C461.549 233.452 461.934 234.193 462.536 234.731C463.137 235.269 463.979 235.578 464.767 235.406C463.553 234.288 462.793 232.693 462.686 231.047C462.605 229.794 462.904 228.517 463.521 227.424C463.895 226.761 465.586 225.475 465.351 224.73C465.132 224.039 463.925 223.983 463.398 224.219C462.478 224.634 461.763 226.194 461.418 227.072Z" fill="#69952F"/>
</svg>
