<svg width="556" height="445" viewBox="0 0 556 445" fill="none" xmlns="http://www.w3.org/2000/svg">
<g opacity="0.4">
<path d="M540.496 325.046C552.181 268.416 547.96 216.08 518.02 166.256C496.688 130.76 459.635 101.107 417.253 100.325C377.275 99.5873 341.29 123.857 301.792 129.996C236.818 140.093 169.663 100.404 106.557 118.547C72.7872 128.256 45.3267 154.092 29.8186 184.784C14.3105 215.475 9.91719 250.602 12.3581 284.666C16.6959 345.202 44.2063 405.404 91.1979 444.569H473.98C506.135 408.218 532.938 361.676 540.496 325.046Z" fill="#E0E0FF"/>
</g>
<path d="M224.504 391.735H193.356C192.048 391.735 190.988 390.689 190.988 389.397V381.126C190.988 379.835 192.048 378.788 193.356 378.788H224.504C225.812 378.788 226.872 379.835 226.872 381.126V389.397C226.872 390.689 225.812 391.735 224.504 391.735Z" fill="#E0E0FF"/>
<path d="M265.222 391.735H234.073C232.766 391.735 231.705 390.689 231.705 389.397V381.126C231.705 379.835 232.765 378.788 234.073 378.788H265.222C266.529 378.788 267.59 379.835 267.59 381.126V389.397C267.59 390.689 266.53 391.735 265.222 391.735Z" fill="#E0E0FF"/>
<path d="M244.573 373.932H213.425C212.117 373.932 211.056 372.886 211.056 371.595V363.323C211.056 362.032 212.116 360.986 213.425 360.986H244.573C245.88 360.986 246.941 362.032 246.941 363.323V371.595C246.941 372.886 245.88 373.932 244.573 373.932Z" fill="#E0E0FF"/>
<path d="M417.952 70.4228C417.952 65.9734 414.298 62.3665 409.792 62.3665H138.182C133.675 62.3665 130.022 65.9734 130.022 70.4228V77.0279H417.952V70.4228Z" fill="white"/>
<path d="M418.383 77.4539H129.59V70.4226C129.59 65.7454 133.444 61.9399 138.182 61.9399H409.792C414.529 61.9399 418.383 65.7454 418.383 70.4226V77.4539ZM130.453 76.6017H417.52V70.4229C417.52 66.2157 414.053 62.7924 409.792 62.7924H138.182C133.92 62.7924 130.453 66.2154 130.453 70.4229V76.6017Z" fill="#5254CF"/>
<path d="M130.022 77.0281V248.099C130.022 252.548 133.675 256.155 138.182 256.155H409.791C414.298 256.155 417.952 252.548 417.952 248.099V77.0281H130.022Z" fill="white"/>
<path d="M409.792 256.581H138.182C133.444 256.581 129.59 252.776 129.59 248.099V76.6018H418.383V248.099C418.383 252.776 414.529 256.581 409.792 256.581ZM130.453 77.4539V248.099C130.453 252.306 133.92 255.729 138.182 255.729H409.792C414.053 255.729 417.52 252.306 417.52 248.099V77.4539H130.453Z" fill="#5254CF"/>
<path d="M144.251 72.5663C145.85 72.4239 147.03 71.0281 146.886 69.4486C146.742 67.8692 145.328 66.7042 143.728 66.8466C142.128 66.9891 140.948 68.3849 141.093 69.9643C141.237 71.5437 142.651 72.7087 144.251 72.5663Z" fill="white"/>
<path d="M143.981 72.9993C142.137 72.9993 140.637 71.518 140.637 69.6973C140.637 67.8766 142.137 66.3953 143.981 66.3953C145.825 66.3953 147.326 67.8766 147.326 69.6973C147.326 71.518 145.826 72.9993 143.981 72.9993ZM143.981 67.2563C142.618 67.2563 141.509 68.3514 141.509 69.6969C141.509 71.0428 142.618 72.1375 143.981 72.1375C145.344 72.1375 146.453 71.0428 146.453 69.6969C146.454 68.3514 145.344 67.2563 143.981 67.2563Z" fill="#5254CF"/>
<path d="M155.594 72.5665C157.194 72.4241 158.373 71.0283 158.229 69.4489C158.085 67.8694 156.671 66.7045 155.071 66.8469C153.472 66.9893 152.292 68.3851 152.436 69.9646C152.58 71.544 153.994 72.7089 155.594 72.5665Z" fill="white"/>
<path d="M155.324 72.9993C153.48 72.9993 151.979 71.518 151.979 69.6973C151.979 67.8766 153.48 66.3953 155.324 66.3953C157.168 66.3953 158.669 67.8766 158.669 69.6973C158.669 71.518 157.169 72.9993 155.324 72.9993ZM155.324 67.2563C153.961 67.2563 152.852 68.3514 152.852 69.6969C152.852 71.0428 153.961 72.1375 155.324 72.1375C156.687 72.1375 157.796 71.0428 157.796 69.6969C157.796 68.3514 156.687 67.2563 155.324 67.2563Z" fill="#5254CF"/>
<path d="M166.937 72.5665C168.537 72.4241 169.717 71.0283 169.572 69.4489C169.428 67.8694 168.014 66.7045 166.415 66.8469C164.815 66.9893 163.635 68.3851 163.779 69.9646C163.923 71.544 165.337 72.7089 166.937 72.5665Z" fill="white"/>
<path d="M166.667 72.9993C164.823 72.9993 163.322 71.518 163.322 69.6973C163.322 67.8766 164.823 66.3953 166.667 66.3953C168.511 66.3953 170.011 67.8766 170.011 69.6973C170.011 71.518 168.511 72.9993 166.667 72.9993ZM166.667 67.2563C165.304 67.2563 164.195 68.3514 164.195 69.6969C164.195 71.0428 165.304 72.1375 166.667 72.1375C168.03 72.1375 169.139 71.0428 169.139 69.6969C169.139 68.3514 168.03 67.2563 166.667 67.2563Z" fill="#5254CF"/>
<path opacity="0.4" d="M387.942 95.6814H160.031V230.758H387.942V95.6814Z" fill="#E0E0FF"/>
<path d="M315.413 255.665H241.005C238.257 230.296 237.55 207.554 240.01 192.436C240.682 188.318 241.581 184.769 242.741 181.883L274.073 175.586L310.501 178.808C316.626 194.452 317.586 222.577 315.413 255.665Z" fill="#FFB147"/>
<path d="M276.822 182.624H275.949V211.912H276.822V182.624Z" fill="#1B1B43"/>
<path opacity="0.2" d="M310.501 178.808C310.501 178.808 281.167 199.121 240.011 192.436C240.683 188.318 241.581 184.769 242.742 181.883L274.074 175.586L310.501 178.808Z" fill="#1B1B43"/>
<path d="M259.303 64.007C259.303 64.007 245.172 81.7971 248.575 96.9124L298.215 94.8674C298.215 94.8674 298.641 65.2671 287.796 62.7476L259.303 64.007Z" fill="#1B1B43"/>
<path d="M302.052 93.1076H301.18C301.18 73.7166 290.964 64.8074 290.861 64.7199L291.431 64.0669C291.537 64.1575 302.052 73.3262 302.052 93.1076Z" fill="#1B1B43"/>
<path d="M247.218 165.077C247.157 167.101 246.756 169.048 246.066 170.874C244.269 175.681 240.5 179.583 235.64 181.496C234.47 181.97 233.232 182.314 231.94 182.53C229.602 182.926 226.88 183.15 223.677 183.15C207.623 183.15 195.966 171.111 194.588 167.442C193.209 163.763 197.096 165.073 197.096 165.073C198.514 161.95 201.673 164.465 201.673 164.465C202.624 161.209 205.608 164.25 205.608 164.25C205.608 164.25 205.712 162.467 207.414 162.57C208.461 162.639 211.89 164.698 214.368 166.266C215.642 167.067 217.107 167.48 218.591 167.48C219.184 167.48 219.777 167.42 220.362 167.282C223.407 166.593 225.745 164.172 226.312 161.14L231.12 135.28H242.498L246.145 139.897C247.576 145.592 247.488 157.255 247.218 165.077Z" fill="#FFBC96"/>
<path opacity="0.4" d="M246.066 170.874C244.269 175.681 240.499 179.583 235.639 181.496C235.238 180.54 235.011 179.489 235.011 178.386C235.011 173.95 238.658 170.349 243.161 170.349C244.181 170.349 245.159 170.538 246.066 170.874Z" fill="#FE5B52"/>
<path d="M271.805 85.738L248.407 90.4452C239.805 92.176 233.064 98.7821 231.247 107.262L224.883 136.961L246.147 139.901L271.805 85.738Z" fill="#5254CF"/>
<path d="M279.956 85.738L303.353 90.4452C311.955 92.176 318.697 98.7821 320.514 107.262L323.404 128.354L302.778 131.923L279.956 85.738Z" fill="#5254CF"/>
<path d="M246.147 139.9C246.147 139.9 245.013 173.77 242.745 181.887C242.745 181.887 274.498 192.804 310.504 178.808L307.669 116.388L279.955 85.7378H271.804L244.162 121.147L246.147 139.9Z" fill="#5254CF"/>
<path d="M350.62 86.5755C350.75 88.7893 347.06 95.4912 344.224 100.289C342.139 103.813 340.804 107.732 340.315 111.789C336.659 142.112 334.242 167.481 323.554 174.587C321.076 176.233 318.162 176.905 314.689 176.431C312.238 176.095 310.222 175.121 308.573 173.666C297.318 163.776 302.78 131.921 302.78 131.921L316.74 129.543C316.74 129.543 319.863 103.511 321.844 94.5523C323.833 85.6021 326.948 90.3571 326.948 90.3571C328.083 87.5575 331.197 89.2373 331.197 89.2373C333.466 85.602 336.302 88.3931 336.302 88.3931C338.003 85.0421 342.828 90.917 342.828 90.917C345.943 89.5129 350.34 81.9238 350.62 86.5755Z" fill="#FFBC96"/>
<path d="M247.1 111.456L245.726 139.873L246.597 139.914L247.972 111.497L247.1 111.456Z" fill="#1B1B43"/>
<path d="M302.381 132.428L300.599 109.795L301.469 109.729L303.176 131.418L316.667 129.119L316.816 129.968L302.381 132.428Z" fill="#1B1B43"/>
<path d="M319.648 105.424L313.253 153.088L314.118 153.201L320.513 105.537L319.648 105.424Z" fill="#D28572"/>
<path opacity="0.4" d="M323.554 174.587C321.076 176.232 318.162 176.904 314.689 176.43C312.237 176.095 310.222 175.121 308.573 173.665C309.908 171.021 312.674 169.203 315.867 169.203C319.418 169.203 322.446 171.451 323.554 174.587Z" fill="#FE5B52"/>
<path d="M327.383 90.3147L326.521 90.4463L327.328 95.6021L328.19 95.4705L327.383 90.3147Z" fill="#D28572"/>
<path d="M331.746 89.1533L330.917 89.4221L332.597 94.4703L333.426 94.2014L331.746 89.1533Z" fill="#D28572"/>
<path d="M336.752 87.8305L335.93 88.1194L337.828 93.3828L338.65 93.0938L336.752 87.8305Z" fill="#D28572"/>
<path d="M293.965 111.126H284.873C284.583 111.126 284.348 110.894 284.348 110.607V108.522C284.348 108.236 284.583 108.003 284.873 108.003H293.965C294.255 108.003 294.49 108.236 294.49 108.522V110.607C294.491 110.894 294.256 111.126 293.965 111.126Z" fill="#CBCBFF"/>
<path d="M275.168 101.398C269.179 101.398 265.031 97.7898 264.969 97.735L265.553 97.0954C265.911 97.4131 274.437 104.795 284.775 97.072L285.302 97.7587C281.65 100.487 278.177 101.398 275.168 101.398Z" fill="#1B1B43"/>
<path d="M210.898 168.812C209.041 168.099 207.022 166.57 205.059 164.39L205.711 163.818C207.582 165.896 209.486 167.346 211.214 168.01L210.898 168.812Z" fill="#D28572"/>
<path d="M205.916 170.067C204.131 168.955 202.549 167.143 201.078 164.528L201.841 164.11C203.239 166.595 204.724 168.305 206.382 169.339L205.916 170.067Z" fill="#D28572"/>
<path d="M202.398 171.664C200.267 170.098 198.306 167.913 196.401 164.982L197.136 164.517C198.983 167.359 200.874 169.47 202.919 170.972L202.398 171.664Z" fill="#D28572"/>
<path d="M275.142 95.8144C270.249 95.8144 266.282 91.898 266.282 87.0672V72.302H284.001V87.0672C284.002 91.898 280.035 95.8144 275.142 95.8144Z" fill="#FFBC96"/>
<path d="M266.279 73.7976C271.757 82.8863 277.636 83.6327 284.02 73.8693L266.279 73.7976Z" fill="#D28572"/>
<path d="M275.142 77.5507C268.353 77.5507 262.851 72.1178 262.851 65.4159V44.946H287.432V65.4159C287.432 72.1178 281.93 77.5507 275.142 77.5507Z" fill="#FFBC96"/>
<path d="M274.907 65.7227C273.47 64.3826 272.93 63.3238 273.255 62.4854C273.567 61.6802 274.566 61.4238 275.156 61.3428L275.125 58.6969L275.997 58.6873L276.038 62.156L275.608 62.1667C275.181 62.1788 274.242 62.3483 274.07 62.7945C273.988 63.0075 273.963 63.6577 275.506 65.0969L274.907 65.7227Z" fill="#1B1B43"/>
<path d="M279.509 68.3638C280.048 67.5499 280.31 66.8442 280.31 66.8442C277.333 67.0892 271.025 67.0892 271.025 67.0892C271.025 67.0892 271.208 67.8145 271.732 68.6236C273.616 68.6991 276.705 68.7342 279.509 68.3638Z" fill="white"/>
<path d="M271.731 68.6233C272.375 69.6157 273.535 70.7345 275.525 70.7976C277.449 70.8589 278.752 69.5041 279.508 68.3635C276.704 68.7343 273.616 68.6991 271.731 68.6233Z" fill="#1B1B43"/>
<path d="M287.292 57.8253C287.303 58.2919 287.729 48.1343 271.696 45.9807C271.696 45.9807 262.644 51.0955 263.68 58.4714L258.763 57.5545C256.863 52.4414 257.518 38.7661 268.642 39.7354C268.642 39.7354 271.041 36.3534 274.968 36.2897C294.927 35.9665 291.775 57.8171 291.296 58.4469L287.292 57.8253Z" fill="#1B1B43"/>
<path d="M293.627 62.5175C294.567 59.7052 293.413 56.8018 291.051 56.0327C288.689 55.2636 286.012 56.92 285.073 59.7323C284.134 62.5446 285.287 65.4479 287.649 66.2171C290.011 66.9862 292.688 65.3298 293.627 62.5175Z" fill="#FFBC96"/>
<path d="M288.717 62.6638L287.852 62.5567C288.002 61.3689 288.866 59.0886 291.058 58.9614L291.109 59.8215C289.085 59.939 288.72 62.6366 288.717 62.6638Z" fill="#1B1B43"/>
<path d="M256.574 62.5247C257.514 65.3371 260.19 66.9934 262.552 66.2243C264.914 65.4552 266.068 62.5519 265.128 59.7395C264.189 56.9271 261.513 55.2708 259.151 56.0399C256.788 56.8093 255.635 59.7126 256.574 62.5247Z" fill="#FFBC96"/>
<path d="M261.484 62.6645C261.47 62.5532 261.107 59.9383 259.092 59.8215L259.143 58.9614C261.336 59.0889 262.199 61.3689 262.35 62.557L261.484 62.6645Z" fill="#1B1B43"/>
<path d="M281.48 56.1657C281.48 56.9424 280.887 57.5723 280.156 57.5723C279.424 57.5723 278.832 56.9427 278.832 56.1657C278.832 55.3887 279.425 54.7595 280.156 54.7595C280.887 54.7592 281.48 55.389 281.48 56.1657Z" fill="#1B1B43"/>
<path d="M282.527 53.0869L278.441 52.6015C278.054 52.5553 277.777 52.208 277.824 51.8255L277.847 51.6353C277.894 51.2528 278.246 50.9799 278.633 51.0261L282.719 51.5116C283.106 51.5578 283.383 51.9051 283.336 52.2876L283.313 52.4778C283.266 52.8602 282.914 53.1331 282.527 53.0869Z" fill="#1B1B43"/>
<path d="M268.722 56.1657C268.722 56.9424 269.315 57.5723 270.046 57.5723C270.777 57.5723 271.37 56.9427 271.37 56.1657C271.37 55.3887 270.777 54.7595 270.046 54.7595C269.315 54.7595 268.722 55.389 268.722 56.1657Z" fill="#1B1B43"/>
<path d="M267.674 53.0869L271.76 52.6015C272.147 52.5553 272.424 52.208 272.377 51.8255L272.354 51.6353C272.307 51.2528 271.955 50.9799 271.568 51.0261L267.482 51.5116C267.095 51.5578 266.818 51.9051 266.865 52.2876L266.888 52.4778C266.935 52.8602 267.287 53.1331 267.674 53.0869Z" fill="#1B1B43"/>
<path opacity="0.4" d="M282.629 64.539C284.205 64.539 285.484 63.2771 285.484 61.7204C285.484 60.1638 284.205 58.9019 282.629 58.9019C281.052 58.9019 279.774 60.1638 279.774 61.7204C279.774 63.2771 281.052 64.539 282.629 64.539Z" fill="#FE5B52"/>
<path opacity="0.4" d="M267.572 64.539C269.148 64.539 270.427 63.2771 270.427 61.7204C270.427 60.1638 269.148 58.9019 267.572 58.9019C265.995 58.9019 264.717 60.1638 264.717 61.7204C264.717 63.2771 265.995 64.539 267.572 64.539Z" fill="#FE5B52"/>
<path d="M194.536 151.685H109.337C106.91 151.685 104.943 149.743 104.943 147.347V112.758C104.943 110.362 106.91 108.42 109.337 108.42H194.536C196.963 108.42 198.93 110.362 198.93 112.758V147.347C198.93 149.743 196.963 151.685 194.536 151.685Z" fill="white"/>
<path d="M194.537 152.099H109.337C106.683 152.099 104.524 149.968 104.524 147.347V112.758C104.524 110.138 106.683 108.006 109.337 108.006H194.537C197.19 108.006 199.35 110.138 199.35 112.758V147.347C199.35 149.968 197.19 152.099 194.537 152.099ZM109.337 108.835C107.146 108.835 105.363 110.595 105.363 112.758V147.347C105.363 149.51 107.146 151.27 109.337 151.27H194.537C196.728 151.27 198.51 149.51 198.51 147.347V112.758C198.51 110.595 196.728 108.835 194.537 108.835H109.337Z" fill="#5254CF"/>
<path d="M188.473 119.069H115.4V119.931H188.473V119.069Z" fill="#E0E0FF"/>
<path d="M188.473 129.622H115.4V130.483H188.473V129.622Z" fill="#E0E0FF"/>
<path d="M188.473 140.174H115.4V141.036H188.473V140.174Z" fill="#E0E0FF"/>
<path d="M116.621 141.113L115.937 140.577L121.145 134.094L130.111 137.117L137.83 128.843L145.677 135.085L154.893 124.903L163.249 134.422L170.716 115.344L178.461 127.361L187.467 114.542L188.184 115.032L178.43 128.917L170.907 117.245L163.541 136.069L154.883 126.207L145.776 136.269L137.918 130.02L130.368 138.113L121.447 135.106L116.621 141.113Z" fill="#5254CF"/>
<path d="M352.187 34.2786L347.981 0.693359C331.032 2.74217 317.903 16.9919 317.903 34.2786C317.903 52.9722 333.252 68.1264 352.187 68.1264C371.121 68.1264 386.47 52.9722 386.47 34.2786C386.47 33.289 386.418 32.3118 386.334 31.3436L352.187 34.2786Z" fill="white"/>
<path d="M352.187 68.5569C333.042 68.5569 317.467 53.1798 317.467 34.2784C317.467 16.9868 330.562 2.36429 347.927 0.265512L348.36 0.213135L352.568 33.8132L386.732 30.8768L386.769 31.3065C386.862 32.3739 386.907 33.346 386.907 34.2784C386.907 53.1798 371.331 68.5569 352.187 68.5569ZM347.601 1.17552C330.889 3.4104 318.339 17.5653 318.339 34.2784C318.339 52.7046 333.523 67.6955 352.186 67.6955C370.85 67.6955 386.034 52.7046 386.034 34.2784C386.034 33.4969 386.001 32.6858 385.934 31.8099L351.805 34.7432L347.601 1.17552Z" fill="#5254CF"/>
<path d="M370.073 27.3871L404.22 24.452C403.67 18.1347 401.366 12.3152 397.786 7.46851L370.073 27.3871Z" fill="#9192FF"/>
<path d="M379.9 14.3599C373.665 5.91967 363.578 0.430664 352.187 0.430664C350.762 0.430664 349.36 0.526807 347.98 0.693235L352.187 34.2785L379.9 14.3599Z" fill="#E0E0FF"/>
<path d="M351.844 35.0573L347.494 0.31804L347.927 0.265673C349.407 0.0868409 350.801 0 352.186 0C363.236 0 373.728 5.27331 380.252 14.1064L380.509 14.4547L351.844 35.0573ZM348.467 1.07092L352.529 33.5002L379.288 14.2673C372.911 5.86493 362.813 0.861425 352.187 0.861425C350.973 0.861425 349.751 0.929996 348.467 1.07092Z" fill="#5254CF"/>
<path d="M438.222 209.407H375.595C372.606 209.407 370.182 207.014 370.182 204.062V136.227C370.182 133.275 372.606 130.882 375.595 130.882H438.222C441.212 130.882 443.636 133.275 443.636 136.227V204.062C443.636 207.014 441.212 209.407 438.222 209.407Z" fill="white"/>
<path d="M438.222 209.82H375.596C372.38 209.82 369.763 207.237 369.763 204.062V136.227C369.763 133.051 372.38 130.468 375.596 130.468H438.222C441.438 130.468 444.055 133.051 444.055 136.227V204.062C444.055 207.237 441.438 209.82 438.222 209.82ZM375.595 131.295C372.841 131.295 370.6 133.507 370.6 136.227V204.062C370.6 206.782 372.841 208.994 375.595 208.994H438.222C440.976 208.994 443.217 206.782 443.217 204.062V136.227C443.217 133.507 440.976 131.295 438.222 131.295L375.595 131.295Z" fill="#5254CF"/>
<path d="M435.266 142.125H378.552V143.032H435.266V142.125Z" fill="#E0E0FF"/>
<path d="M435.266 155.908H378.552V156.815H435.266V155.908Z" fill="#E0E0FF"/>
<path d="M435.266 169.691H378.552V170.598H435.266V169.691Z" fill="#E0E0FF"/>
<path d="M435.266 183.474H378.552V184.381H435.266V183.474Z" fill="#E0E0FF"/>
<path d="M435.266 197.257H378.552V198.163H435.266V197.257Z" fill="#E0E0FF"/>
<path d="M383.382 160.649H378.552V198.163H383.382V160.649Z" fill="#CBCBFF"/>
<path d="M393.884 174.589H389.054V198.163H393.884V174.589Z" fill="#E0E0FF"/>
<path d="M404.386 165.927H399.556V198.163H404.386V165.927Z" fill="#CBCBFF"/>
<path d="M414.887 160.108H410.057V198.163H414.887V160.108Z" fill="#E0E0FF"/>
<path d="M425.388 153.082H420.558V198.163H425.388V153.082Z" fill="#CBCBFF"/>
<path d="M435.89 145.601H431.06V198.163H435.89V145.601Z" fill="#E0E0FF"/>
<path d="M229.64 5.38623H186.862C184.055 5.38623 181.778 7.63351 181.778 10.4056V27.5018C181.778 30.2739 184.055 32.5211 186.862 32.5211H216.076L227.307 41.9968V32.5211H229.64C232.447 32.5211 234.724 30.2739 234.724 27.5018V10.4056C234.724 7.63351 232.447 5.38623 229.64 5.38623Z" fill="white"/>
<path d="M227.765 42.9783L215.907 32.9733H186.863C183.807 32.9733 181.32 30.519 181.32 27.5016V10.4054C181.32 7.3883 183.807 4.93359 186.863 4.93359H229.64C232.695 4.93359 235.182 7.3883 235.182 10.4054V27.5016C235.182 30.5186 232.695 32.9733 229.64 32.9733H227.765V42.9783ZM186.863 5.83843C184.312 5.83843 182.237 7.88724 182.237 10.4054V27.5016C182.237 30.0197 184.312 32.0685 186.863 32.0685H216.245L226.849 41.0149V32.0685H229.64C232.19 32.0685 234.265 30.0197 234.265 27.5016V10.4054C234.265 7.88724 232.19 5.83843 229.64 5.83843H186.863Z" fill="#5254CF"/>
<path d="M222.508 12.2773H188.262V13.1388H222.508V12.2773Z" fill="#9192FF"/>
<path d="M227.089 18.092H188.262V18.9535H227.089V18.092Z" fill="#9192FF"/>
<path d="M215.528 23.9065H188.262V24.7679H215.528V23.9065Z" fill="#9192FF"/>
<path d="M218.23 298.095H206.015V444.538H218.23V298.095Z" fill="#B0B0D2"/>
<path d="M342.563 298.095H330.348V444.538H342.563V298.095Z" fill="#B0B0D2"/>
<path opacity="0.3" d="M218.23 297.694H206.015V323.507H218.23V297.694Z" fill="#1B1B43"/>
<path opacity="0.3" d="M342.563 297.694H330.348V323.507H342.563V297.694Z" fill="#1B1B43"/>
<path d="M411.458 293.102H137.12V305.237H411.458V293.102Z" fill="#B0B0D2"/>
<path d="M379.195 288.957H347.426V293.116H379.195V288.957Z" fill="#1B1B43"/>
<path d="M352.126 293.116H347.426L328.701 244.342C328.156 242.922 329.218 241.403 330.756 241.403C331.669 241.403 332.487 241.961 332.811 242.804L352.126 293.116Z" fill="#1B1B43"/>
<path d="M176.624 293.116H208.393V288.957H176.624V293.116Z" fill="#1B1B43"/>
<path d="M203.693 293.116H208.393L227.118 244.342C227.663 242.922 226.601 241.403 225.063 241.403C224.15 241.403 223.332 241.961 223.008 242.804L203.693 293.116Z" fill="#1B1B43"/>
<path d="M114.169 236.959L131.5 239.709L131.691 230.333L131.873 221L132.032 213.02L127.226 210.78L118.991 220.307L114.169 236.959Z" fill="#D28572"/>
<path d="M124.611 220.902C124.611 220.902 126.702 225.235 131.691 230.333L131.873 221L124.611 220.902Z" fill="#925D4F"/>
<path d="M143.879 209.363C144.081 209.475 149.367 217.466 146.992 218.189C144.616 218.913 141.618 218.635 141.618 218.635L143.879 209.363Z" fill="#925D4F"/>
<path d="M145.62 202.564L143.433 222.429C143.248 224.115 142.127 225.557 140.527 226.172C139.409 226.601 138.166 226.583 137.062 226.12L124.608 220.903L122.927 209.703L133.01 199.276L145.62 202.564Z" fill="#D28572"/>
<path d="M115.661 226.055L109.699 239.119L132.82 242.709L134.42 232.515L115.661 226.055Z" fill="#FED3D1"/>
<path d="M130.848 209.676C130.848 209.676 141.071 207.973 145.62 202.564C145.62 202.564 147.306 192.103 131.719 190.716C114.808 189.213 98.9507 212.836 98.9507 212.836L119.609 230.651L130.848 209.676Z" fill="#1B1B43"/>
<path d="M127.045 212.173C128.209 214.406 130.558 215.503 132.293 214.622C134.028 213.741 134.492 211.216 133.329 208.983C132.165 206.749 129.816 205.653 128.081 206.534C126.346 207.415 125.883 209.939 127.045 212.173Z" fill="#D28572"/>
<path d="M130.898 212.19C130.827 211.714 130.479 210.366 129.732 209.86C129.446 209.666 129.126 209.611 128.754 209.695L128.562 208.855C129.177 208.718 129.737 208.818 130.228 209.151C131.442 209.976 131.749 211.982 131.762 212.066L130.898 212.19Z" fill="#1B1B43"/>
<path opacity="0.3" d="M138.255 217.997C140.123 217.997 141.637 216.502 141.637 214.659C141.637 212.815 140.123 211.321 138.255 211.321C136.388 211.321 134.874 212.815 134.874 214.659C134.874 216.502 136.388 217.997 138.255 217.997Z" fill="#BE443D"/>
<path d="M140.365 268.414C139.012 273.367 135.487 277.614 130.488 279.655C130.191 279.776 129.895 279.888 129.589 280C129.293 280.103 129.005 280.215 128.717 280.319C119.39 283.937 112.087 291.517 109.172 301.01C109.007 301.561 108.867 302.087 108.754 302.578C108.754 302.578 89.3401 305.377 69.7085 294.61C69.7085 294.61 80.5277 256.715 104.408 238.686C109.931 234.517 117.182 233.311 123.813 235.387C126.719 236.3 129.432 237.652 131.875 239.384C134.31 241.124 136.473 243.234 138.271 245.663L138.698 246.249L140.81 261.462C141.141 263.831 140.967 266.191 140.365 268.414Z" fill="#FE5B52"/>
<path d="M140.365 268.414C139.013 273.367 135.488 277.614 130.488 279.655C130.191 279.776 129.895 279.888 129.589 280C129.293 280.103 129.005 280.215 128.717 280.318C125.698 273.005 123.22 261.376 123.22 261.376L137.765 263.279L140.365 268.414Z" fill="#BE443D"/>
<path d="M171.793 252.184C171.793 252.184 184.568 238.701 188.589 239.694C190.334 240.125 185.099 245.508 185.099 245.508C185.099 245.508 190.092 245.603 198.096 241.523C198.971 241.078 200.049 241.459 200.428 242.356C200.667 242.921 200.572 243.566 200.183 244.042C198.488 246.115 193.44 251.693 186.408 254.123L183.424 257.931L175.937 261.445L171.793 252.184Z" fill="#D28572"/>
<path d="M183.424 257.93L166.715 287.339C164.638 290.983 160.738 293.248 156.498 293.248C154.796 293.248 153.139 292.878 151.629 292.197C150.12 291.517 148.758 290.518 147.642 289.243L123.22 261.376L138.698 246.249L155.651 269.197L171.793 252.184L183.424 257.93Z" fill="#FE5B52"/>
<path d="M160.41 277.721C150.609 262.614 137.593 244.732 130.61 238.837L131.177 238.182C139.234 244.984 153.805 265.944 161.144 277.256L160.41 277.721Z" fill="#1B1B43"/>
<path d="M156.933 294.063C155.148 294.063 153.286 293.571 151.421 292.576C146.076 289.726 123.826 262.792 122.881 261.647L123.558 261.104C123.788 261.383 146.641 289.049 151.836 291.819C157.745 294.97 161.755 292.105 163.62 290.117C166.591 286.95 182.878 258.013 183.042 257.721L183.805 258.139C183.132 259.335 167.301 287.459 164.26 290.703C162.172 292.93 159.641 294.063 156.933 294.063Z" fill="#1B1B43"/>
<path d="M129.476 410.543L114.429 439.837L117.716 440.296L123.171 432.649L140.273 444.569L150.301 444.528C150.301 444.528 152.336 442.534 147.127 437.19C141.003 430.907 137.502 422.668 137.662 414.069L137.676 413.328L133.575 409.197L129.476 410.543Z" fill="#1B1B43"/>
<path d="M130.105 419.697L126.785 444.518H130.105L134.421 436.191L150.355 444.198H162.969C162.969 444.198 164.701 441.943 158.785 437.372C151.829 431.998 147.192 424.325 146.131 415.789L146.039 415.054L141.392 411.531L130.105 419.697Z" fill="#393A8F"/>
<path d="M147.799 422.747L171.152 341.671C173.035 335.134 169.879 328.207 163.676 325.261L142.645 315.275L141.392 411.531L147.799 422.747Z" fill="#1B1B43"/>
<path d="M69.7084 294.609L65.0038 316.722C62.2568 329.635 72.2366 341.772 85.6008 341.772H129.621C125.217 363.019 128.079 392.244 129.621 422.316L147.798 422.746L160.337 345.456C162.435 332.526 155.045 319.92 142.644 315.274L108.753 302.577L69.7084 294.609Z" fill="#5254CF"/>
<path opacity="0.4" d="M142.56 422.802L141.695 422.691C141.791 421.963 151.254 349.672 148.679 336.398C146.019 322.683 119.238 318.723 104.85 316.596C103.569 316.407 102.391 316.233 101.342 316.068C97.737 315.502 95.1732 313.966 93.721 311.502C90.8564 306.643 93.3329 299.98 93.4397 299.699L94.2567 300.001C94.2323 300.066 91.8193 306.569 94.4766 311.072C95.7913 313.3 98.1471 314.694 101.479 315.217C102.526 315.382 103.702 315.556 104.979 315.744C119.58 317.903 146.76 321.921 149.536 336.236C150.629 341.874 149.787 358.158 147.033 384.637C144.984 404.335 142.584 422.62 142.56 422.802Z" fill="white"/>
<path d="M79.7075 345.27L76.6973 362.447L62.2921 444.653H56.2368L70.642 362.447L73.6522 345.27H79.7075Z" fill="#B0B0D2"/>
<path d="M119.843 444.653H113.788L99.3827 362.447L96.3726 345.27H102.428L105.438 362.447L119.843 444.653Z" fill="#B0B0D2"/>
<path opacity="0.3" d="M79.7073 345.27L76.6971 362.447H70.6418L73.652 345.27H79.7073Z" fill="#1B1B43"/>
<path opacity="0.3" d="M105.438 362.447H99.3827L96.3726 345.27H102.428L105.438 362.447Z" fill="#1B1B43"/>
<path d="M114.784 349.956H58.1196V341.772H114.784C117.072 341.772 118.928 343.605 118.928 345.864C118.928 348.124 117.073 349.956 114.784 349.956Z" fill="#CBCBFF"/>
<path d="M66.1177 349.956H58.1195L31.1044 284.576C30.3523 282.756 31.1745 280.673 32.9757 279.835C34.919 278.931 37.2326 279.822 38.0416 281.787L66.1177 349.956Z" fill="#CBCBFF"/>
<path d="M434.167 208.799C433.962 208.902 428.357 216.615 430.685 217.436C433.013 218.256 436.005 218.109 436.005 218.109L434.167 208.799Z" fill="#D28572"/>
<path d="M462.472 237.496L443.806 239.678L444.151 230.336L444.503 221.036L444.801 213.085L450.064 211.009L458.298 220.759L462.472 237.496Z" fill="#FFBC96"/>
<path d="M452.264 221.172C452.264 221.172 449.777 225.42 444.151 230.335L444.503 221.036L452.264 221.172Z" fill="#D28572"/>
<path d="M432.738 201.969L434.035 221.802C434.145 223.484 435.195 224.966 436.757 225.646C437.849 226.121 439.086 226.155 440.203 225.743L452.807 221.094L454.97 210.038L445.412 199.244L432.738 201.969Z" fill="#FFBC96"/>
<path d="M447.325 210.031C447.325 210.031 444.229 204.098 441.006 203.19C441.006 203.19 428.595 207.182 425.862 197.785C425.862 197.785 432.855 197.851 438.849 193.709C444.842 189.566 451.095 191.554 455.423 195.421C455.423 195.421 469.566 196.109 458.416 220.745C458.416 220.745 455.613 221.663 448.477 211.821L447.325 210.031Z" fill="#1B1B43"/>
<path d="M450.802 212.059C449.547 214.228 447.176 215.223 445.505 214.282C443.834 213.34 443.496 210.818 444.75 208.649C446.004 206.479 448.375 205.484 450.047 206.426C451.718 207.368 452.056 209.89 450.802 212.059Z" fill="#FFBC96"/>
<path opacity="0.4" d="M440.037 217.081C441.935 217.081 443.473 215.539 443.473 213.636C443.473 211.733 441.935 210.19 440.037 210.19C438.14 210.19 436.602 211.733 436.602 213.636C436.602 215.539 438.14 217.081 440.037 217.081Z" fill="#FE5B52"/>
<path d="M446.75 211.869C446.579 210.753 446.892 208.462 449.297 207.784L449.537 208.612C447.26 209.254 447.597 211.639 447.613 211.741L446.75 211.869Z" fill="#1B1B43"/>
<path d="M443.805 239.678L444.017 230.074L460.45 225.911L465.248 237.827L443.805 239.678Z" fill="#CBCBFF"/>
<path d="M446.344 235.817C438.096 243.743 432.093 255.63 424.531 267.69C424.531 267.69 398.901 274.222 391.558 281.473L404.755 288.077L449.835 275.73L446.344 235.817Z" fill="#1B1B43"/>
<path d="M379.699 415.666L369.418 444.487L337.249 436.563C337.249 436.563 342.254 429.805 357.35 431.748L365.377 409.475L379.699 415.666Z" fill="#1B1B43"/>
<path d="M444.018 301.716L397.556 316.624C386.647 320.125 378.315 328.9 375.482 339.874L356.766 416.286L382.069 422.747C391.987 399.532 401.622 371.829 408.245 344.931L444.018 301.716Z" fill="#393A8F"/>
<path d="M427.149 417.849L430.93 444.553H395.739C395.739 444.553 398.938 436.8 414.062 435.077L413.189 418.997L427.149 417.849Z" fill="#1B1B43"/>
<path d="M486.138 294.104L490.843 316.217C493.59 329.13 483.775 341.988 470.411 341.988H428.094C430.472 363.455 432.762 391.739 431.221 421.811L408.048 422.242L395.509 344.951C393.411 332.021 400.801 319.415 413.202 314.769L444.018 301.716L486.138 294.104Z" fill="#5254CF"/>
<path d="M487.644 301.286C483.834 265.343 478.381 231.429 450.959 232.989C449.332 233.082 447.805 233.801 446.653 234.938C441.936 239.595 439.524 246.06 440.055 252.625L444.018 301.716C444.018 301.716 465.394 305.593 487.644 301.286Z" fill="#1B1B43"/>
<path d="M391.558 281.15C391.558 281.15 375.416 284.165 372.799 293.21H395.702L400.065 290.195L391.558 281.15Z" fill="#FFBC96"/>
<path d="M451.107 240.878L430.166 272.967L391.558 281.15L395.702 293.21L428.073 293.047C436.765 292.879 444.202 288.393 449.034 281.258L467.03 255.738L451.107 240.878Z" fill="#1B1B43"/>
<path d="M391.65 281.571L391.466 280.729L429.837 272.596C430.859 269.747 431.875 266.797 432.857 263.942C436.888 252.23 440.696 241.167 445.417 235.124L446.108 235.65C441.475 241.579 437.69 252.576 433.683 264.219C432.673 267.153 431.629 270.187 430.578 273.11L430.496 273.337L430.258 273.387L391.65 281.571Z" fill="#5254CF"/>
<path d="M414.698 293.808C405.719 293.808 396.397 293.652 395.695 293.64L395.71 292.779C396.024 292.785 427.222 293.307 431.054 292.466L431.171 292.441C440.426 290.406 448.108 284.009 451.724 275.327L456.048 264.942L456.855 265.27L452.531 275.655C448.807 284.596 440.894 291.186 431.362 293.281L431.245 293.307C429.455 293.699 422.196 293.808 414.698 293.808Z" fill="#5254CF"/>
<path d="M495.464 444.65H501.52L484.104 345.268H478.047L495.464 444.65Z" fill="#B0B0D2"/>
<path d="M443.969 444.65H437.912L455.328 345.268H461.385L443.969 444.65Z" fill="#B0B0D2"/>
<path opacity="0.3" d="M461.374 345.268L458.364 362.445H452.309L455.319 345.268H461.374Z" fill="#1B1B43"/>
<path opacity="0.3" d="M487.104 362.445H481.049L478.039 345.268H484.094L487.104 362.445Z" fill="#1B1B43"/>
<path d="M442.972 349.956H499.636V341.772H442.972C440.683 341.772 438.827 343.605 438.827 345.864C438.827 348.124 440.683 349.956 442.972 349.956Z" fill="#CBCBFF"/>
<path d="M491.638 349.956H499.636L526.652 284.576C527.404 282.756 526.581 280.673 524.78 279.835C522.837 278.931 520.523 279.822 519.714 281.787L491.638 349.956Z" fill="#CBCBFF"/>
<path d="M555.764 444.138H0V445H555.764V444.138Z" fill="#1B1B43"/>
</svg>
